<svg width="70" height="53" viewBox="0 0 70 53" fill="none" xmlns="http://www.w3.org/2000/svg">
<path d="M29.5453 50C29.1863 50 28.8347 50.146 28.5811 50.3995C28.3276 50.6531 28.1816 51.0051 28.1816 51.3636C28.1816 51.7221 28.3276 52.0742 28.5811 52.3278C28.8347 52.5813 29.1863 52.7273 29.5453 52.7273C29.9038 52.7273 30.2553 52.5813 30.5094 52.3278C30.763 52.0742 30.9089 51.7237 30.9089 51.3636C30.9089 51.0051 30.763 50.6531 30.5094 50.3995C30.2553 50.146 29.9038 50 29.5453 50Z" fill="white"/>
<path d="M29.5453 50C29.1863 50 28.8347 50.146 28.5811 50.3995C28.3276 50.6531 28.1816 51.0051 28.1816 51.3636C28.1816 51.7221 28.3276 52.0742 28.5811 52.3278C28.8347 52.5813 29.1863 52.7273 29.5453 52.7273C29.9038 52.7273 30.2553 52.5813 30.5094 52.3278C30.763 52.0742 30.9089 51.7237 30.9089 51.3636C30.9089 51.0051 30.763 50.6531 30.5094 50.3995C30.2553 50.146 29.9038 50 29.5453 50Z" fill="url(#paint0_linear)"/>
<path d="M57.1084 27.0568L53.9222 12.6744C54.782 12.558 55.5404 12.121 56.0739 11.4881C56.7036 11.8814 57.4464 12.1098 58.2422 12.1098H60.9766C61.7317 12.1098 62.3438 11.4983 62.3438 10.7437V5.27956C62.3438 4.52503 61.7317 3.91351 60.9766 3.91351H58.2422C57.4229 3.91351 56.6592 4.15577 56.0178 4.57145C55.3919 3.86442 54.4781 3.41725 53.4613 3.41725H45.3906C43.9407 3.41725 42.6995 4.32599 42.2055 5.60293H38.9648C37.0049 5.60293 35.4102 7.19629 35.4102 9.15465C35.4102 11.113 37.0049 12.7064 38.9648 12.7064H46.0021V15.4593C46.0021 16.2138 46.6142 16.8253 47.3693 16.8253C48.1245 16.8253 48.7365 16.2138 48.7365 15.4593V12.7064H51.1291L54.5609 28.1998L48.0657 39.7589C47.356 41.0172 46.0176 41.7989 44.5719 41.7989H28.3574C27.6786 36.1111 22.8251 31.6859 16.9531 31.6859C14.3549 31.6859 11.9036 32.5317 9.86404 34.1314C9.86137 34.1336 9.8587 34.1357 9.85603 34.1378C7.42767 36.046 5.90134 38.7845 5.54565 41.7989H2.73758C2.91595 31.9783 10.9669 24.0446 20.8368 24.0446H30.5353C31.3006 24.0446 31.9238 24.6673 31.9238 25.4325V37.7008C31.9238 38.4553 32.5359 39.0668 33.291 39.0668H40.5659C43.5337 39.0668 46.2686 37.4542 47.7031 34.8593C48.3669 33.6586 48.7189 32.299 48.7199 30.9282L48.7269 26.3898C48.728 25.6353 48.1165 25.0227 47.3613 25.0216C47.3608 25.0216 47.3602 25.0216 47.3597 25.0216C46.6056 25.0216 45.9936 25.6321 45.9925 26.3855L45.9856 30.925C45.985 31.8364 45.7511 32.7403 45.31 33.5381C44.3562 35.2627 42.5382 36.3342 40.5659 36.3342H34.6582V25.4319C34.6582 24.7324 34.482 24.0728 34.1727 23.4949C35.4011 22.7858 36.2299 21.4603 36.2299 19.9443C36.2299 17.6844 34.3896 15.8461 32.1284 15.8461H27.1381C26.6586 15.8461 26.1987 15.9294 25.771 16.0809V4.09814C25.771 1.83829 23.9306 0 21.6694 0H12.8494C6.45569 0 1.13861 4.69045 0.161285 10.8078C0.120163 10.938 0.0977326 11.0762 0.0977326 11.2197C0.0977326 11.2283 0.0988006 11.2363 0.0988006 11.2443C0.0336457 11.7672 0 12.2992 0 12.8387V19.9448C0 21.9966 1.51726 23.7009 3.48953 23.9971L6.51711 27.0221C2.5058 30.8193 0 36.1885 0 42.1324V43.1649C0 43.9195 0.61203 44.531 1.36719 44.531H9.05067C9.03305 44.619 9.02344 44.7108 9.02344 44.8042C9.02344 46.7866 9.75777 48.6003 10.9669 49.9909H1.36719C0.61203 49.9909 0 50.603 0 51.357C0 52.1115 0.61203 52.723 1.36719 52.723H16.795C16.8479 52.7246 16.9003 52.7273 16.9531 52.7273C21.3255 52.7273 24.8828 49.1729 24.8828 44.8042C24.8828 44.7108 24.8732 44.619 24.8556 44.531H44.5719C46.7247 44.531 48.7365 43.5001 49.9974 41.7946H51.7288C51.3395 42.7413 51.1328 43.7615 51.1328 44.8042C51.1328 46.7866 51.8671 48.6003 53.0762 49.9909H35.3461C34.5909 49.9909 33.9789 50.603 33.9789 51.357C33.9789 52.1115 34.5909 52.723 35.3461 52.723H58.9044C58.9573 52.7246 59.0096 52.7273 59.0625 52.7273C63.4348 52.7273 66.9922 49.1729 66.9922 44.8042C66.9922 43.7615 66.7855 42.7413 66.3962 41.7946H68.6328C69.388 41.7946 70 41.1831 70 40.4286C70 33.2179 64.2616 27.3209 57.1084 27.0568ZM27.1381 18.5788H32.1284C32.8819 18.5788 33.4956 19.1914 33.4956 19.9448C33.4956 20.6977 32.8819 21.3109 32.1284 21.3109H27.1381C26.384 21.3109 25.771 20.6977 25.771 19.9448C25.771 19.1914 26.384 18.5788 27.1381 18.5788ZM2.73438 12.8387C2.73438 12.7544 2.73865 12.6706 2.74078 12.5863H17.7013C18.4565 12.5863 19.0685 11.9748 19.0685 11.2203C19.0685 10.4657 18.4565 9.85421 17.7013 9.85421H3.18512C4.46259 5.73366 8.31154 2.73263 12.8494 2.73263H21.6689C22.4229 2.73263 23.036 3.34521 23.036 4.09867V19.9448C23.036 20.6977 22.4229 21.3109 21.6689 21.3109H4.1021C4.1021 21.3109 4.10156 21.3109 4.10103 21.3109C3.34747 21.3109 2.73438 20.6977 2.73438 19.9448V12.8387ZM7.40257 24.043H10.5311C9.87419 24.4176 9.24026 24.8279 8.63037 25.2697L7.40257 24.043ZM22.1484 44.8042C22.1484 47.6489 19.8461 49.9653 17.006 49.9936C16.9884 49.993 16.9707 49.9909 16.9531 49.9909H16.7956C14.0035 49.9071 11.7578 47.6137 11.7578 44.8042C11.7578 44.7108 11.7482 44.619 11.7306 44.531H22.1757C22.1581 44.619 22.1484 44.7108 22.1484 44.8042ZM8.3046 41.7989C8.64319 39.6287 9.78394 37.6682 11.5458 36.2856C11.5501 36.283 11.5538 36.2792 11.5581 36.2765C13.11 35.061 14.9755 34.418 16.9531 34.418C21.3153 34.418 24.9421 37.6223 25.6006 41.7989H8.3046ZM58.2422 6.6456H59.6094V9.3777H58.2422C57.4881 9.3777 56.875 8.76511 56.875 8.01165C56.875 7.25872 57.4881 6.6456 58.2422 6.6456ZM38.1445 9.15465C38.1445 8.70268 38.5125 8.33502 38.9648 8.33502H41.9769V9.29552C41.9769 9.52818 42.0004 9.75496 42.0448 9.97428H38.9648C38.5125 9.97428 38.1445 9.60662 38.1445 9.15465ZM47.3693 9.97428H45.3906C45.0163 9.97428 44.7113 9.67012 44.7113 9.29552V6.8281C44.7113 6.45404 45.0163 6.14934 45.3906 6.14934H53.4613C53.8357 6.14934 54.1406 6.45404 54.1406 6.8281V9.29552C54.1406 9.67012 53.8357 9.97428 53.4613 9.97428H47.3693ZM64.2578 44.8042C64.2578 47.6489 61.9555 49.9653 59.1154 49.9936C59.0977 49.993 59.0801 49.9909 59.0625 49.9909H58.905C56.1129 49.9071 53.8672 47.6137 53.8672 44.8042C53.8672 43.7188 54.2058 42.6698 54.8296 41.7946H63.2954C63.9192 42.6698 64.2578 43.7188 64.2578 44.8042ZM51.5926 39.0625L56.8061 29.7846C62.1301 29.8823 66.5137 33.8977 67.178 39.0625H51.5926Z" fill="white"/>
<path d="M57.1084 27.0568L53.9222 12.6744C54.782 12.558 55.5404 12.121 56.0739 11.4881C56.7036 11.8814 57.4464 12.1098 58.2422 12.1098H60.9766C61.7317 12.1098 62.3438 11.4983 62.3438 10.7437V5.27956C62.3438 4.52503 61.7317 3.91351 60.9766 3.91351H58.2422C57.4229 3.91351 56.6592 4.15577 56.0178 4.57145C55.3919 3.86442 54.4781 3.41725 53.4613 3.41725H45.3906C43.9407 3.41725 42.6995 4.32599 42.2055 5.60293H38.9648C37.0049 5.60293 35.4102 7.19629 35.4102 9.15465C35.4102 11.113 37.0049 12.7064 38.9648 12.7064H46.0021V15.4593C46.0021 16.2138 46.6142 16.8253 47.3693 16.8253C48.1245 16.8253 48.7365 16.2138 48.7365 15.4593V12.7064H51.1291L54.5609 28.1998L48.0657 39.7589C47.356 41.0172 46.0176 41.7989 44.5719 41.7989H28.3574C27.6786 36.1111 22.8251 31.6859 16.9531 31.6859C14.3549 31.6859 11.9036 32.5317 9.86404 34.1314C9.86137 34.1336 9.8587 34.1357 9.85603 34.1378C7.42767 36.046 5.90134 38.7845 5.54565 41.7989H2.73758C2.91595 31.9783 10.9669 24.0446 20.8368 24.0446H30.5353C31.3006 24.0446 31.9238 24.6673 31.9238 25.4325V37.7008C31.9238 38.4553 32.5359 39.0668 33.291 39.0668H40.5659C43.5337 39.0668 46.2686 37.4542 47.7031 34.8593C48.3669 33.6586 48.7189 32.299 48.7199 30.9282L48.7269 26.3898C48.728 25.6353 48.1165 25.0227 47.3613 25.0216C47.3608 25.0216 47.3602 25.0216 47.3597 25.0216C46.6056 25.0216 45.9936 25.6321 45.9925 26.3855L45.9856 30.925C45.985 31.8364 45.7511 32.7403 45.31 33.5381C44.3562 35.2627 42.5382 36.3342 40.5659 36.3342H34.6582V25.4319C34.6582 24.7324 34.482 24.0728 34.1727 23.4949C35.4011 22.7858 36.2299 21.4603 36.2299 19.9443C36.2299 17.6844 34.3896 15.8461 32.1284 15.8461H27.1381C26.6586 15.8461 26.1987 15.9294 25.771 16.0809V4.09814C25.771 1.83829 23.9306 0 21.6694 0H12.8494C6.45569 0 1.13861 4.69045 0.161285 10.8078C0.120163 10.938 0.0977326 11.0762 0.0977326 11.2197C0.0977326 11.2283 0.0988006 11.2363 0.0988006 11.2443C0.0336457 11.7672 0 12.2992 0 12.8387V19.9448C0 21.9966 1.51726 23.7009 3.48953 23.9971L6.51711 27.0221C2.5058 30.8193 0 36.1885 0 42.1324V43.1649C0 43.9195 0.61203 44.531 1.36719 44.531H9.05067C9.03305 44.619 9.02344 44.7108 9.02344 44.8042C9.02344 46.7866 9.75777 48.6003 10.9669 49.9909H1.36719C0.61203 49.9909 0 50.603 0 51.357C0 52.1115 0.61203 52.723 1.36719 52.723H16.795C16.8479 52.7246 16.9003 52.7273 16.9531 52.7273C21.3255 52.7273 24.8828 49.1729 24.8828 44.8042C24.8828 44.7108 24.8732 44.619 24.8556 44.531H44.5719C46.7247 44.531 48.7365 43.5001 49.9974 41.7946H51.7288C51.3395 42.7413 51.1328 43.7615 51.1328 44.8042C51.1328 46.7866 51.8671 48.6003 53.0762 49.9909H35.3461C34.5909 49.9909 33.9789 50.603 33.9789 51.357C33.9789 52.1115 34.5909 52.723 35.3461 52.723H58.9044C58.9573 52.7246 59.0096 52.7273 59.0625 52.7273C63.4348 52.7273 66.9922 49.1729 66.9922 44.8042C66.9922 43.7615 66.7855 42.7413 66.3962 41.7946H68.6328C69.388 41.7946 70 41.1831 70 40.4286C70 33.2179 64.2616 27.3209 57.1084 27.0568ZM27.1381 18.5788H32.1284C32.8819 18.5788 33.4956 19.1914 33.4956 19.9448C33.4956 20.6977 32.8819 21.3109 32.1284 21.3109H27.1381C26.384 21.3109 25.771 20.6977 25.771 19.9448C25.771 19.1914 26.384 18.5788 27.1381 18.5788ZM2.73438 12.8387C2.73438 12.7544 2.73865 12.6706 2.74078 12.5863H17.7013C18.4565 12.5863 19.0685 11.9748 19.0685 11.2203C19.0685 10.4657 18.4565 9.85421 17.7013 9.85421H3.18512C4.46259 5.73366 8.31154 2.73263 12.8494 2.73263H21.6689C22.4229 2.73263 23.036 3.34521 23.036 4.09867V19.9448C23.036 20.6977 22.4229 21.3109 21.6689 21.3109H4.1021C4.1021 21.3109 4.10156 21.3109 4.10103 21.3109C3.34747 21.3109 2.73438 20.6977 2.73438 19.9448V12.8387ZM7.40257 24.043H10.5311C9.87419 24.4176 9.24026 24.8279 8.63037 25.2697L7.40257 24.043ZM22.1484 44.8042C22.1484 47.6489 19.8461 49.9653 17.006 49.9936C16.9884 49.993 16.9707 49.9909 16.9531 49.9909H16.7956C14.0035 49.9071 11.7578 47.6137 11.7578 44.8042C11.7578 44.7108 11.7482 44.619 11.7306 44.531H22.1757C22.1581 44.619 22.1484 44.7108 22.1484 44.8042ZM8.3046 41.7989C8.64319 39.6287 9.78394 37.6682 11.5458 36.2856C11.5501 36.283 11.5538 36.2792 11.5581 36.2765C13.11 35.061 14.9755 34.418 16.9531 34.418C21.3153 34.418 24.9421 37.6223 25.6006 41.7989H8.3046ZM58.2422 6.6456H59.6094V9.3777H58.2422C57.4881 9.3777 56.875 8.76511 56.875 8.01165C56.875 7.25872 57.4881 6.6456 58.2422 6.6456ZM38.1445 9.15465C38.1445 8.70268 38.5125 8.33502 38.9648 8.33502H41.9769V9.29552C41.9769 9.52818 42.0004 9.75496 42.0448 9.97428H38.9648C38.5125 9.97428 38.1445 9.60662 38.1445 9.15465ZM47.3693 9.97428H45.3906C45.0163 9.97428 44.7113 9.67012 44.7113 9.29552V6.8281C44.7113 6.45404 45.0163 6.14934 45.3906 6.14934H53.4613C53.8357 6.14934 54.1406 6.45404 54.1406 6.8281V9.29552C54.1406 9.67012 53.8357 9.97428 53.4613 9.97428H47.3693ZM64.2578 44.8042C64.2578 47.6489 61.9555 49.9653 59.1154 49.9936C59.0977 49.993 59.0801 49.9909 59.0625 49.9909H58.905C56.1129 49.9071 53.8672 47.6137 53.8672 44.8042C53.8672 43.7188 54.2058 42.6698 54.8296 41.7946H63.2954C63.9192 42.6698 64.2578 43.7188 64.2578 44.8042ZM51.5926 39.0625L56.8061 29.7846C62.1301 29.8823 66.5137 33.8977 67.178 39.0625H51.5926Z" fill="url(#paint1_linear)"/>
<path d="M47.7287 22.7273C48.4812 22.7273 49.091 22.1168 49.091 21.3636C49.091 20.6104 48.4812 20 47.7287 20H47.7239C46.9715 20 46.3638 20.6104 46.3638 21.3636C46.3638 22.1168 46.9763 22.7273 47.7287 22.7273Z" fill="white"/>
<path d="M47.7287 22.7273C48.4812 22.7273 49.091 22.1168 49.091 21.3636C49.091 20.6104 48.4812 20 47.7287 20H47.7239C46.9715 20 46.3638 20.6104 46.3638 21.3636C46.3638 22.1168 46.9763 22.7273 47.7287 22.7273Z" fill="url(#paint2_linear)"/>
<defs>
<linearGradient id="paint0_linear" x1="26.818" y1="51.3636" x2="29.5453" y2="54.0909" gradientUnits="userSpaceOnUse">
<stop stop-color="#F99026"/>
<stop offset="1" stop-color="#DF2029"/>
</linearGradient>
<linearGradient id="paint1_linear" x1="-35" y1="26.3636" x2="15.679" y2="93.6444" gradientUnits="userSpaceOnUse">
<stop stop-color="#F99026"/>
<stop offset="1" stop-color="#DF2029"/>
</linearGradient>
<linearGradient id="paint2_linear" x1="45.0001" y1="21.3636" x2="47.7274" y2="24.0909" gradientUnits="userSpaceOnUse">
<stop stop-color="#F99026"/>
<stop offset="1" stop-color="#DF2029"/>
</linearGradient>
</defs>
</svg>
