<svg width="21" height="25" viewBox="0 0 21 25" fill="none" xmlns="http://www.w3.org/2000/svg">
<path fill-rule="evenodd" clip-rule="evenodd" d="M19.4728 6.64062C19.5724 6.64062 19.6556 6.71934 19.6631 6.82109L20.9995 24.79C21.0035 24.8441 20.9851 24.8977 20.9491 24.9375C20.913 24.9773 20.8622 25 20.8091 25H0.190884C0.137811 25 0.0870294 24.9773 0.0509475 24.9373C0.0146747 24.8975 -0.00346175 24.8439 0.00054735 24.7898L1.33691 6.82109C1.34436 6.71934 1.4276 6.64062 1.52725 6.64062H4.96362V5.66406C4.96362 2.54082 7.44736 0 10.5 0C13.5526 0 16.0364 2.54082 16.0364 5.66406V6.64062H19.4728ZM10.4999 1.5625C8.28921 1.5625 6.49084 3.40254 6.49084 5.66406V6.64062H14.509V5.66406C14.509 3.40254 12.7107 1.5625 10.4999 1.5625ZM5.72721 12.1094C4.67435 12.1094 3.81812 11.2332 3.81812 10.1562C3.81812 9.37676 4.19993 8.67441 4.96357 8.36621V10.1562C4.96357 10.5871 5.30626 10.9375 5.72721 10.9375C6.14817 10.9375 6.49085 10.5871 6.49085 10.1562V8.36738C7.25449 8.67559 7.63631 9.3832 7.63631 10.1562C7.63631 11.2332 6.78008 12.1094 5.72721 12.1094ZM13.3636 10.1562C13.3636 11.2332 14.2199 12.1094 15.2727 12.1094C16.3256 12.1094 17.1818 11.2332 17.1818 10.1562C17.1818 9.3832 16.8 8.67559 16.0364 8.36738V10.1562C16.0364 10.5871 15.6937 10.9375 15.2727 10.9375C14.8518 10.9375 14.5091 10.5871 14.5091 10.1562V8.36621C13.7455 8.67441 13.3636 9.37676 13.3636 10.1562Z" fill="url(#paint0_radial)"/>
<path fill-rule="evenodd" clip-rule="evenodd" d="M19.4728 6.64062C19.5724 6.64062 19.6556 6.71934 19.6631 6.82109L20.9995 24.79C21.0035 24.8441 20.9851 24.8977 20.9491 24.9375C20.913 24.9773 20.8622 25 20.8091 25H0.190884C0.137811 25 0.0870294 24.9773 0.0509475 24.9373C0.0146747 24.8975 -0.00346175 24.8439 0.00054735 24.7898L1.33691 6.82109C1.34436 6.71934 1.4276 6.64062 1.52725 6.64062H4.96362V5.66406C4.96362 2.54082 7.44736 0 10.5 0C13.5526 0 16.0364 2.54082 16.0364 5.66406V6.64062H19.4728ZM10.4999 1.5625C8.28921 1.5625 6.49084 3.40254 6.49084 5.66406V6.64062H14.509V5.66406C14.509 3.40254 12.7107 1.5625 10.4999 1.5625ZM5.72721 12.1094C4.67435 12.1094 3.81812 11.2332 3.81812 10.1562C3.81812 9.37676 4.19993 8.67441 4.96357 8.36621V10.1562C4.96357 10.5871 5.30626 10.9375 5.72721 10.9375C6.14817 10.9375 6.49085 10.5871 6.49085 10.1562V8.36738C7.25449 8.67559 7.63631 9.3832 7.63631 10.1562C7.63631 11.2332 6.78008 12.1094 5.72721 12.1094ZM13.3636 10.1562C13.3636 11.2332 14.2199 12.1094 15.2727 12.1094C16.3256 12.1094 17.1818 11.2332 17.1818 10.1562C17.1818 9.3832 16.8 8.67559 16.0364 8.36738V10.1562C16.0364 10.5871 15.6937 10.9375 15.2727 10.9375C14.8518 10.9375 14.5091 10.5871 14.5091 10.1562V8.36621C13.7455 8.67441 13.3636 9.37676 13.3636 10.1562Z" fill="url(#paint1_linear)"/>
<path fill-rule="evenodd" clip-rule="evenodd" d="M19.4728 6.64062C19.5724 6.64062 19.6556 6.71934 19.6631 6.82109L20.9995 24.79C21.0035 24.8441 20.9851 24.8977 20.9491 24.9375C20.913 24.9773 20.8622 25 20.8091 25H0.190884C0.137811 25 0.0870294 24.9773 0.0509475 24.9373C0.0146747 24.8975 -0.00346175 24.8439 0.00054735 24.7898L1.33691 6.82109C1.34436 6.71934 1.4276 6.64062 1.52725 6.64062H4.96362V5.66406C4.96362 2.54082 7.44736 0 10.5 0C13.5526 0 16.0364 2.54082 16.0364 5.66406V6.64062H19.4728ZM10.4999 1.5625C8.28921 1.5625 6.49084 3.40254 6.49084 5.66406V6.64062H14.509V5.66406C14.509 3.40254 12.7107 1.5625 10.4999 1.5625ZM5.72721 12.1094C4.67435 12.1094 3.81812 11.2332 3.81812 10.1562C3.81812 9.37676 4.19993 8.67441 4.96357 8.36621V10.1562C4.96357 10.5871 5.30626 10.9375 5.72721 10.9375C6.14817 10.9375 6.49085 10.5871 6.49085 10.1562V8.36738C7.25449 8.67559 7.63631 9.3832 7.63631 10.1562C7.63631 11.2332 6.78008 12.1094 5.72721 12.1094ZM13.3636 10.1562C13.3636 11.2332 14.2199 12.1094 15.2727 12.1094C16.3256 12.1094 17.1818 11.2332 17.1818 10.1562C17.1818 9.3832 16.8 8.67559 16.0364 8.36738V10.1562C16.0364 10.5871 15.6937 10.9375 15.2727 10.9375C14.8518 10.9375 14.5091 10.5871 14.5091 10.1562V8.36621C13.7455 8.67441 13.3636 9.37676 13.3636 10.1562Z" fill="white"/>
<defs>
<radialGradient id="paint0_radial" cx="0" cy="0" r="1" gradientUnits="userSpaceOnUse" gradientTransform="translate(10.5) rotate(90) scale(25 21)">
<stop stop-color="#F01716"/>
<stop offset="1" stop-color="#F88818"/>
</radialGradient>
<linearGradient id="paint1_linear" x1="0" y1="0" x2="0" y2="25" gradientUnits="userSpaceOnUse">
<stop stop-color="white" stop-opacity="0.5"/>
<stop offset="1" stop-opacity="0.5"/>
</linearGradient>
</defs>
</svg>
