<svg width="29" height="26" viewBox="0 0 29 26" fill="none" xmlns="http://www.w3.org/2000/svg">
<path d="M8.27486 16.829C8.89751 16.829 9.40226 16.3243 9.40226 15.7016C9.40226 15.079 8.89751 14.5742 8.27486 14.5742C7.65222 14.5742 7.14746 15.079 7.14746 15.7016C7.14746 16.3243 7.65222 16.829 8.27486 16.829Z" fill="black"/>
<path d="M20.1176 16.829C20.7403 16.829 21.245 16.3243 21.245 15.7016C21.245 15.079 20.7403 14.5742 20.1176 14.5742C19.495 14.5742 18.9902 15.079 18.9902 15.7016C18.9902 16.3243 19.495 16.829 20.1176 16.829Z" fill="black"/>
<path d="M28.3933 15.2234C28.3933 13.5903 27.2096 12.2295 25.6552 11.9514V11.4586C25.6552 5.14029 20.5149 0 14.1967 0C7.87839 0 2.7381 5.14029 2.7381 11.4586V11.9514C1.18374 12.2295 0 13.5904 0 15.2234C0 16.8705 1.20414 18.241 2.77823 18.5026C2.99978 21.0272 4.15484 22.892 6.22191 24.0525C8.06017 25.0845 10.6686 25.5862 14.1967 25.5862C17.7247 25.5862 20.3332 25.0845 22.1715 24.0525C24.2385 22.892 25.3935 21.0273 25.6151 18.5026C27.1892 18.241 28.3933 16.8705 28.3933 15.2234ZM1.17377 15.2234C1.17377 14.2407 1.83636 13.4104 2.73803 13.1542V17.2925C1.83636 17.0364 1.17377 16.2061 1.17377 15.2234ZM24.4814 17.579C24.4814 20.1565 23.5379 21.9392 21.5968 23.029C19.9387 23.9599 17.5181 24.4124 14.1967 24.4124C10.8753 24.4124 8.45463 23.9599 6.79654 23.029C4.85543 21.9392 3.91187 20.1565 3.91187 17.579V11.4586C3.91187 6.81422 7.00657 2.87976 11.2419 1.60703C14.4685 1.64782 16.1869 3.97701 16.1869 5.66356C16.1869 6.95529 15.136 8.00625 13.8442 8.00625C12.8755 8.00625 12.0874 7.21814 12.0874 6.24949C12.0874 5.53929 12.6652 4.96143 13.3755 4.96143C13.6996 4.96143 13.9624 4.69866 13.9624 4.37455C13.9624 4.05044 13.6996 3.78767 13.3755 3.78767C12.018 3.78767 10.9137 4.89203 10.9137 6.24949C10.9137 7.8654 12.2283 9.18002 13.8442 9.18002C15.7832 9.18002 17.3606 7.60255 17.3606 5.66356C17.3606 4.44542 16.7486 3.13483 15.7235 2.15767C15.3134 1.76681 14.8468 1.43823 14.3377 1.1756C19.9439 1.25145 24.4814 5.83471 24.4814 11.4586V17.579ZM25.6552 17.2926V13.1543C26.557 13.4105 27.2195 14.2408 27.2195 15.2234C27.2195 16.2061 26.5569 17.0364 25.6552 17.2926Z" fill="black"/>
<path d="M16.4662 17.3203C15.2147 18.5719 13.1781 18.5719 11.9267 17.3203C11.6974 17.0911 11.3259 17.0911 11.0967 17.3203C10.8675 17.5495 10.8675 17.9211 11.0967 18.1503C11.9513 19.0049 13.0739 19.4322 14.1965 19.4322C15.319 19.4322 16.4416 19.0049 17.2962 18.1503C17.5254 17.9211 17.5254 17.5495 17.2962 17.3203C17.0669 17.0911 16.6954 17.0911 16.4662 17.3203Z" fill="black"/>
</svg>
