<svg width="58" height="61" viewBox="0 0 58 61" fill="none" xmlns="http://www.w3.org/2000/svg">
<path d="M44.9103 9.36242C44.4825 9.54323 44.2346 9.99184 44.312 10.4456C44.3218 10.5028 45.019 14.7932 44.3166 20.129C43.0964 15.2395 39.8265 7.97367 31.2554 0.259761C30.9369 -0.0263419 30.4704 -0.0818458 30.0924 0.12186C29.7144 0.324993 29.5092 0.743848 29.5797 1.16385C29.5913 1.23537 30.6612 7.86724 29.278 15.6115C26.8167 13.0491 23.3497 11.4412 19.5046 11.4412C12.0584 11.4412 6 17.4385 6 24.8097C6 30.4007 9.48901 35.1941 14.4225 37.1859C13.7826 44.9525 18.5491 52.3402 18.7647 52.6681C22.2739 57.8117 28.0762 60.9044 34.3248 60.992C34.3537 60.992 34.3826 60.9977 34.4115 60.9977L34.5884 60.9994C34.5901 60.9994 34.5918 61 34.5941 61H34.5976H34.6057C34.6132 61 34.6196 60.9989 34.6271 60.9989C40.5704 60.9891 46.0658 58.3129 49.7062 53.65C50.7137 52.3603 51.5588 50.8445 52.2895 49.0186C54.7455 42.8817 59.0617 26.7643 46.1166 9.68113C45.8369 9.31206 45.3386 9.18217 44.9103 9.36242ZM8.08439 26.0033H10.2358C10.7942 26.0033 11.2462 25.5558 11.2462 25.0031C11.2462 24.4503 10.7942 24.0035 10.2358 24.0035H8.06127C8.45722 18.4616 12.8722 14.0059 18.437 13.4955V15.8856C18.437 16.4383 18.8884 16.8852 19.4468 16.8852C20.0052 16.8852 20.4572 16.4383 20.4572 15.8856V13.4897C26.0739 13.9498 30.5473 18.4244 30.9462 24.0035H28.6577C28.0994 24.0035 27.6479 24.4509 27.6479 25.0037C27.6479 25.5564 28.0994 26.0039 28.6577 26.0039H30.923C30.3508 31.4026 25.9444 35.6799 20.4572 36.1296V33.1078C20.4572 32.5551 20.0052 32.1082 19.4468 32.1082C18.8884 32.1082 18.437 32.5551 18.437 33.1078V36.1239C13.0011 35.625 8.65259 31.3649 8.08439 26.0033ZM27.5335 55.0983C25.9733 52.6246 25.7861 49.6068 27.0311 47.0267C27.6086 45.8314 28.3855 44.6097 29.341 43.3967C29.6277 43.0962 30.9421 41.6148 31.7184 38.9466C32.0184 40.5591 32.1178 42.674 31.5959 45.2083C31.5161 45.5962 31.6739 45.9945 32.0005 46.2239C32.3259 46.4534 32.76 46.4688 33.1016 46.268C33.1803 46.2222 35.0479 45.1018 36.3461 42.5561C37.2953 40.6964 38.0895 37.7404 37.1889 33.5776C40.1797 36.4484 44.5964 42.7152 41.9219 53.2495C41.0779 56.5757 38.012 58.9887 34.6271 58.9984C34.6155 58.9984 34.6051 59.0007 34.5941 59.0007C34.5196 59.0007 34.4462 58.995 34.3722 58.9938C31.5953 58.9412 29.0439 57.493 27.5335 55.0983ZM50.4103 48.2827C49.7507 49.9324 48.9976 51.2885 48.108 52.4284C46.4779 54.5152 44.4328 56.1569 42.1305 57.2778C42.9398 56.2478 43.5479 55.0491 43.8808 53.7376C48.0502 37.3147 35.9571 30.0442 35.8352 29.9727C35.4652 29.7581 35.0022 29.7959 34.6739 30.0677C34.3462 30.3389 34.2259 30.7852 34.3751 31.1818C36.5756 37.0646 35.3271 40.6878 33.9606 42.6539C34.2358 37.4732 32.2311 34.3947 32.1306 34.2442C31.8849 33.8769 31.4254 33.7109 30.9988 33.838C30.5728 33.9644 30.2797 34.3518 30.278 34.7924C30.2583 39.5703 27.9595 41.9358 27.8658 42.0302C27.8363 42.0594 27.808 42.0909 27.782 42.1241C26.7219 43.4647 25.8554 44.8243 25.2086 46.165C23.6635 49.3642 23.8924 53.0996 25.8202 56.1563C25.9838 56.4166 26.1705 56.6558 26.3537 56.8973C24.0213 55.6247 21.9849 53.816 20.4485 51.5649C20.4034 51.4951 16.0578 44.7465 16.415 37.8102C17.4092 38.0414 18.4398 38.177 19.504 38.177C26.9502 38.177 33.0074 32.1808 33.0074 24.8097C33.0074 22.1941 32.2334 19.76 30.9173 17.6972C32.193 11.9597 32.1144 6.68792 31.882 3.61518C43.9172 15.5606 42.9773 25.9741 42.9652 26.08C42.908 26.5887 43.2484 27.0579 43.7525 27.1672C44.2577 27.2748 44.7646 26.9927 44.9276 26.5069C46.5224 21.7718 46.7415 17.0843 46.638 13.9412C56.3247 29.0463 52.5947 42.8256 50.4103 48.2827Z" fill="white"/>
<path d="M44.9103 9.36242C44.4825 9.54323 44.2346 9.99184 44.312 10.4456C44.3218 10.5028 45.019 14.7932 44.3166 20.129C43.0964 15.2395 39.8265 7.97367 31.2554 0.259761C30.9369 -0.0263419 30.4704 -0.0818458 30.0924 0.12186C29.7144 0.324993 29.5092 0.743848 29.5797 1.16385C29.5913 1.23537 30.6612 7.86724 29.278 15.6115C26.8167 13.0491 23.3497 11.4412 19.5046 11.4412C12.0584 11.4412 6 17.4385 6 24.8097C6 30.4007 9.48901 35.1941 14.4225 37.1859C13.7826 44.9525 18.5491 52.3402 18.7647 52.6681C22.2739 57.8117 28.0762 60.9044 34.3248 60.992C34.3537 60.992 34.3826 60.9977 34.4115 60.9977L34.5884 60.9994C34.5901 60.9994 34.5918 61 34.5941 61H34.5976H34.6057C34.6132 61 34.6196 60.9989 34.6271 60.9989C40.5704 60.9891 46.0658 58.3129 49.7062 53.65C50.7137 52.3603 51.5588 50.8445 52.2895 49.0186C54.7455 42.8817 59.0617 26.7643 46.1166 9.68113C45.8369 9.31206 45.3386 9.18217 44.9103 9.36242ZM8.08439 26.0033H10.2358C10.7942 26.0033 11.2462 25.5558 11.2462 25.0031C11.2462 24.4503 10.7942 24.0035 10.2358 24.0035H8.06127C8.45722 18.4616 12.8722 14.0059 18.437 13.4955V15.8856C18.437 16.4383 18.8884 16.8852 19.4468 16.8852C20.0052 16.8852 20.4572 16.4383 20.4572 15.8856V13.4897C26.0739 13.9498 30.5473 18.4244 30.9462 24.0035H28.6577C28.0994 24.0035 27.6479 24.4509 27.6479 25.0037C27.6479 25.5564 28.0994 26.0039 28.6577 26.0039H30.923C30.3508 31.4026 25.9444 35.6799 20.4572 36.1296V33.1078C20.4572 32.5551 20.0052 32.1082 19.4468 32.1082C18.8884 32.1082 18.437 32.5551 18.437 33.1078V36.1239C13.0011 35.625 8.65259 31.3649 8.08439 26.0033ZM27.5335 55.0983C25.9733 52.6246 25.7861 49.6068 27.0311 47.0267C27.6086 45.8314 28.3855 44.6097 29.341 43.3967C29.6277 43.0962 30.9421 41.6148 31.7184 38.9466C32.0184 40.5591 32.1178 42.674 31.5959 45.2083C31.5161 45.5962 31.6739 45.9945 32.0005 46.2239C32.3259 46.4534 32.76 46.4688 33.1016 46.268C33.1803 46.2222 35.0479 45.1018 36.3461 42.5561C37.2953 40.6964 38.0895 37.7404 37.1889 33.5776C40.1797 36.4484 44.5964 42.7152 41.9219 53.2495C41.0779 56.5757 38.012 58.9887 34.6271 58.9984C34.6155 58.9984 34.6051 59.0007 34.5941 59.0007C34.5196 59.0007 34.4462 58.995 34.3722 58.9938C31.5953 58.9412 29.0439 57.493 27.5335 55.0983ZM50.4103 48.2827C49.7507 49.9324 48.9976 51.2885 48.108 52.4284C46.4779 54.5152 44.4328 56.1569 42.1305 57.2778C42.9398 56.2478 43.5479 55.0491 43.8808 53.7376C48.0502 37.3147 35.9571 30.0442 35.8352 29.9727C35.4652 29.7581 35.0022 29.7959 34.6739 30.0677C34.3462 30.3389 34.2259 30.7852 34.3751 31.1818C36.5756 37.0646 35.3271 40.6878 33.9606 42.6539C34.2358 37.4732 32.2311 34.3947 32.1306 34.2442C31.8849 33.8769 31.4254 33.7109 30.9988 33.838C30.5728 33.9644 30.2797 34.3518 30.278 34.7924C30.2583 39.5703 27.9595 41.9358 27.8658 42.0302C27.8363 42.0594 27.808 42.0909 27.782 42.1241C26.7219 43.4647 25.8554 44.8243 25.2086 46.165C23.6635 49.3642 23.8924 53.0996 25.8202 56.1563C25.9838 56.4166 26.1705 56.6558 26.3537 56.8973C24.0213 55.6247 21.9849 53.816 20.4485 51.5649C20.4034 51.4951 16.0578 44.7465 16.415 37.8102C17.4092 38.0414 18.4398 38.177 19.504 38.177C26.9502 38.177 33.0074 32.1808 33.0074 24.8097C33.0074 22.1941 32.2334 19.76 30.9173 17.6972C32.193 11.9597 32.1144 6.68792 31.882 3.61518C43.9172 15.5606 42.9773 25.9741 42.9652 26.08C42.908 26.5887 43.2484 27.0579 43.7525 27.1672C44.2577 27.2748 44.7646 26.9927 44.9276 26.5069C46.5224 21.7718 46.7415 17.0843 46.638 13.9412C56.3247 29.0463 52.5947 42.8256 50.4103 48.2827Z" fill="url(#paint0_linear)"/>
<path d="M22.3066 28.7101C22.5001 28.9032 22.7544 29 23.0082 29C23.2619 29 23.5157 28.9032 23.7092 28.7101C24.0969 28.3239 24.0969 27.6971 23.7092 27.3109L20.9845 24.5934V19.9898C20.9845 19.4428 20.5406 19 19.9923 19C19.4439 19 19 19.4428 19 19.9898V25.0034C19 25.2661 19.105 25.5176 19.2906 25.7033L22.3066 28.7101Z" fill="white"/>
<path d="M22.3066 28.7101C22.5001 28.9032 22.7544 29 23.0082 29C23.2619 29 23.5157 28.9032 23.7092 28.7101C24.0969 28.3239 24.0969 27.6971 23.7092 27.3109L20.9845 24.5934V19.9898C20.9845 19.4428 20.5406 19 19.9923 19C19.4439 19 19 19.4428 19 19.9898V25.0034C19 25.2661 19.105 25.5176 19.2906 25.7033L22.3066 28.7101Z" fill="url(#paint1_linear)"/>
<path d="M5.70689 47.2927C5.31664 46.9024 4.68321 46.9024 4.29297 47.2927L2.99979 48.5859L1.7066 47.2927C1.31636 46.9024 0.683499 46.9024 0.292683 47.2927C-0.097561 47.6835 -0.097561 48.3164 0.292683 48.7066L1.58587 49.9999L0.292683 51.2931C-0.097561 51.6833 -0.097561 52.3162 0.292683 52.707C0.488377 52.9022 0.744153 53 0.999928 53C1.2557 53 1.51148 52.9022 1.7066 52.707L2.99979 51.4138L4.29297 52.707C4.48809 52.9022 4.74387 53 4.99964 53C5.25542 53 5.51177 52.9022 5.70689 52.707C6.09713 52.3162 6.09713 51.6833 5.70689 51.2931L4.4137 49.9999L5.70689 48.7066C6.0977 48.3164 6.0977 47.6835 5.70689 47.2927Z" fill="white"/>
<path d="M5.70689 47.2927C5.31664 46.9024 4.68321 46.9024 4.29297 47.2927L2.99979 48.5859L1.7066 47.2927C1.31636 46.9024 0.683499 46.9024 0.292683 47.2927C-0.097561 47.6835 -0.097561 48.3164 0.292683 48.7066L1.58587 49.9999L0.292683 51.2931C-0.097561 51.6833 -0.097561 52.3162 0.292683 52.707C0.488377 52.9022 0.744153 53 0.999928 53C1.2557 53 1.51148 52.9022 1.7066 52.707L2.99979 51.4138L4.29297 52.707C4.48809 52.9022 4.74387 53 4.99964 53C5.25542 53 5.51177 52.9022 5.70689 52.707C6.09713 52.3162 6.09713 51.6833 5.70689 51.2931L4.4137 49.9999L5.70689 48.7066C6.0977 48.3164 6.0977 47.6835 5.70689 47.2927Z" fill="url(#paint2_linear)"/>
<path d="M56.4141 5.99979L57.7073 4.70711C58.0976 4.31628 58.0976 3.68339 57.7073 3.29313C57.3165 2.90229 56.6836 2.90229 56.2928 3.29313L55.0002 4.5858L53.707 3.29313C53.3168 2.90229 52.6834 2.90229 52.2931 3.29313C51.9023 3.68339 51.9023 4.31628 52.2931 4.70711L53.5863 5.99979L52.2931 7.29303C51.9023 7.68329 51.9023 8.31675 52.2931 8.70702C52.4882 8.90215 52.7446 9 52.9998 9C53.2556 9 53.5119 8.90215 53.707 8.70702L55.0002 7.41377L56.2928 8.70702C56.4885 8.90215 56.7443 9 57.0001 9C57.2558 9 57.5116 8.90215 57.7073 8.70702C58.0976 8.31675 58.0976 7.68329 57.7073 7.29303L56.4141 5.99979Z" fill="white"/>
<path d="M56.4141 5.99979L57.7073 4.70711C58.0976 4.31628 58.0976 3.68339 57.7073 3.29313C57.3165 2.90229 56.6836 2.90229 56.2928 3.29313L55.0002 4.5858L53.707 3.29313C53.3168 2.90229 52.6834 2.90229 52.2931 3.29313C51.9023 3.68339 51.9023 4.31628 52.2931 4.70711L53.5863 5.99979L52.2931 7.29303C51.9023 7.68329 51.9023 8.31675 52.2931 8.70702C52.4882 8.90215 52.7446 9 52.9998 9C53.2556 9 53.5119 8.90215 53.707 8.70702L55.0002 7.41377L56.2928 8.70702C56.4885 8.90215 56.7443 9 57.0001 9C57.2558 9 57.5116 8.90215 57.7073 8.70702C58.0976 8.31675 58.0976 7.68329 57.7073 7.29303L56.4141 5.99979Z" fill="url(#paint3_linear)"/>
<path d="M3.29311 11.707C3.48823 11.9022 3.74458 12 4.00036 12C4.25613 12 4.51191 11.9022 4.70703 11.707L6.00021 10.4138L7.2934 11.707C7.48852 11.9022 7.7443 12 8.00007 12C8.25585 12 8.51219 11.9022 8.70732 11.707C9.09756 11.3168 9.09756 10.6833 8.70732 10.2931L7.41413 8.99986L8.70732 7.70721C9.09756 7.31639 9.09756 6.68352 8.70732 6.29269C8.3165 5.90244 7.68364 5.90244 7.2934 6.29269L6.00021 7.5859L4.70703 6.29269C4.31679 5.90244 3.68393 5.90244 3.29311 6.29269C2.90287 6.68352 2.90287 7.31639 3.29311 7.70721L4.5863 8.99986L3.29311 10.2931C2.9023 10.6833 2.9023 11.3168 3.29311 11.707Z" fill="white"/>
<path d="M3.29311 11.707C3.48823 11.9022 3.74458 12 4.00036 12C4.25613 12 4.51191 11.9022 4.70703 11.707L6.00021 10.4138L7.2934 11.707C7.48852 11.9022 7.7443 12 8.00007 12C8.25585 12 8.51219 11.9022 8.70732 11.707C9.09756 11.3168 9.09756 10.6833 8.70732 10.2931L7.41413 8.99986L8.70732 7.70721C9.09756 7.31639 9.09756 6.68352 8.70732 6.29269C8.3165 5.90244 7.68364 5.90244 7.2934 6.29269L6.00021 7.5859L4.70703 6.29269C4.31679 5.90244 3.68393 5.90244 3.29311 6.29269C2.90287 6.68352 2.90287 7.31639 3.29311 7.70721L4.5863 8.99986L3.29311 10.2931C2.9023 10.6833 2.9023 11.3168 3.29311 11.707Z" fill="url(#paint4_linear)"/>
<defs>
<linearGradient id="paint0_linear" x1="-18.5" y1="30.5" x2="41.0652" y2="78.3474" gradientUnits="userSpaceOnUse">
<stop stop-color="#F99026"/>
<stop offset="1" stop-color="#DF2029"/>
</linearGradient>
<linearGradient id="paint1_linear" x1="16.5" y1="24" x2="24.5" y2="28" gradientUnits="userSpaceOnUse">
<stop stop-color="#F99026"/>
<stop offset="1" stop-color="#DF2029"/>
</linearGradient>
<linearGradient id="paint2_linear" x1="-3" y1="50" x2="3" y2="56" gradientUnits="userSpaceOnUse">
<stop stop-color="#F99026"/>
<stop offset="1" stop-color="#DF2029"/>
</linearGradient>
<linearGradient id="paint3_linear" x1="49" y1="6" x2="55" y2="12" gradientUnits="userSpaceOnUse">
<stop stop-color="#F99026"/>
<stop offset="1" stop-color="#DF2029"/>
</linearGradient>
<linearGradient id="paint4_linear" x1="0" y1="9" x2="6" y2="15" gradientUnits="userSpaceOnUse">
<stop stop-color="#F99026"/>
<stop offset="1" stop-color="#DF2029"/>
</linearGradient>
</defs>
</svg>
