<svg width="162" height="12" viewBox="0 0 162 12" fill="none" xmlns="http://www.w3.org/2000/svg">
<path d="M5.726 11.154C8.526 11.154 10.794 8.9 10.794 6.1C10.794 3.3 8.526 1.046 5.726 1.046C2.926 1.046 0.658 3.3 0.658 6.1C0.658 8.9 2.926 11.154 5.726 11.154ZM5.726 10.818C3.136 10.818 1.022 8.718 1.022 6.1C1.022 3.482 3.136 1.382 5.726 1.382C8.316 1.382 10.416 3.482 10.416 6.1C10.416 8.718 8.316 10.818 5.726 10.818ZM5.768 8.788C6.776 8.788 7.63 8.27 8.064 7.486L7.462 7.136C7.168 7.78 6.496 8.13 5.768 8.13C4.55 8.13 3.752 7.178 3.752 6.1C3.752 5.022 4.55 4.07 5.768 4.07C6.482 4.07 7.154 4.42 7.462 5.05L8.05 4.714C7.616 3.93 6.776 3.412 5.768 3.412C4.214 3.412 3.052 4.602 3.052 6.1C3.052 7.598 4.214 8.788 5.768 8.788ZM15.7778 11H21.9378V10.286H16.8418L19.8798 7.164C20.8738 6.156 21.7138 5.078 21.7138 3.86C21.7138 2.04 20.2998 1.046 18.8018 1.046C17.5278 1.046 16.4218 1.662 15.8338 2.866L16.4638 3.244C16.9258 2.264 17.7378 1.76 18.8018 1.76C19.9918 1.76 20.9578 2.516 20.9578 3.86C20.9578 4.826 20.2298 5.75 19.3758 6.632L15.7778 10.328V11ZM26.8319 11.154C29.1839 11.154 30.4999 9.124 30.4999 6.1C30.4999 3.076 29.1839 1.046 26.8319 1.046C24.4799 1.046 23.1639 3.076 23.1639 6.1C23.1639 9.124 24.4799 11.154 26.8319 11.154ZM26.8319 10.44C25.0119 10.44 23.9199 8.844 23.9199 6.1C23.9199 3.356 25.0119 1.76 26.8319 1.76C28.6519 1.76 29.7439 3.356 29.7439 6.1C29.7439 8.844 28.6519 10.44 26.8319 10.44ZM33.8078 1.2L31.2458 2.082L31.4278 2.726L33.6958 2.012V11H34.4378V1.2H33.8078ZM36.2583 11H42.4183V10.286H37.3223L40.3603 7.164C41.3543 6.156 42.1943 5.078 42.1943 3.86C42.1943 2.04 40.7803 1.046 39.2823 1.046C38.0083 1.046 36.9023 1.662 36.3143 2.866L36.9443 3.244C37.4062 2.264 38.2183 1.76 39.2823 1.76C40.4723 1.76 41.4383 2.516 41.4383 3.86C41.4383 4.826 40.7103 5.75 39.8563 6.632L36.2583 10.328V11ZM47.9895 7.01H53.0295V6.338H47.9895V7.01ZM58.5708 11H64.7308V10.286H59.6348L62.6728 7.164C63.6668 6.156 64.5068 5.078 64.5068 3.86C64.5068 2.04 63.0928 1.046 61.5948 1.046C60.3208 1.046 59.2148 1.662 58.6268 2.866L59.2568 3.244C59.7188 2.264 60.5308 1.76 61.5948 1.76C62.7848 1.76 63.7508 2.516 63.7508 3.86C63.7508 4.826 63.0228 5.75 62.1688 6.632L58.5708 10.328V11ZM69.6248 11.154C71.9768 11.154 73.2928 9.124 73.2928 6.1C73.2928 3.076 71.9768 1.046 69.6248 1.046C67.2728 1.046 65.9568 3.076 65.9568 6.1C65.9568 9.124 67.2728 11.154 69.6248 11.154ZM69.6248 10.44C67.8048 10.44 66.7128 8.844 66.7128 6.1C66.7128 3.356 67.8048 1.76 69.6248 1.76C71.4448 1.76 72.5368 3.356 72.5368 6.1C72.5368 8.844 71.4448 10.44 69.6248 10.44ZM76.6008 1.2L74.0388 2.082L74.2208 2.726L76.4888 2.012V11H77.2308V1.2H76.6008ZM85.4912 4.266C85.4912 2.362 84.1052 1.046 82.2012 1.046C80.2972 1.046 78.9112 2.362 78.9112 4.266C78.9112 6.184 80.2972 7.5 82.2012 7.5C82.5792 7.5 82.9432 7.444 83.2792 7.346L80.7732 11H81.6132L84.8892 6.226C85.2672 5.694 85.4912 5.036 85.4912 4.266ZM79.6672 4.266C79.6672 2.81 80.6472 1.76 82.2012 1.76C83.7552 1.76 84.7492 2.81 84.7492 4.266C84.7492 5.736 83.7552 6.786 82.2012 6.786C80.6472 6.786 79.6672 5.736 79.6672 4.266ZM93.2292 11.154C94.9652 11.154 96.3792 10.188 96.3792 8.312V1.2H95.6232V8.312C95.6232 9.712 94.6572 10.44 93.2292 10.44C92.1232 10.44 91.2832 10.02 90.9332 9.138L90.3032 9.516C90.7792 10.594 91.8852 11.154 93.2292 11.154ZM103.557 4V7.696C103.557 9.586 102.479 10.482 101.107 10.482C99.7915 10.482 99.0495 9.642 99.0495 8.354V4H98.3355V8.354C98.3355 10.048 99.3855 11.154 101.051 11.154C102.129 11.154 103.025 10.706 103.557 9.67V11H104.257V4H103.557ZM113.896 3.846C112.958 3.846 112.062 4.294 111.558 5.274C111.194 4.35 110.396 3.846 109.374 3.846C108.478 3.846 107.638 4.238 107.12 5.204V4H106.42V11H107.12V7.094C107.12 5.302 108.142 4.518 109.29 4.518C110.368 4.518 111.082 5.232 111.082 6.562V11H111.782V7.094C111.782 5.302 112.706 4.518 113.882 4.518C114.974 4.518 115.744 5.232 115.744 6.562V11H116.444V6.562C116.444 4.812 115.38 3.846 113.896 3.846ZM122.134 3.846C120.776 3.846 119.698 4.546 119.124 5.624V1.2H118.424V11H119.124V9.376C119.698 10.454 120.776 11.154 122.134 11.154C124.136 11.154 125.76 9.572 125.76 7.5C125.76 5.428 124.136 3.846 122.134 3.846ZM122.092 10.482C120.426 10.482 119.124 9.166 119.124 7.5C119.124 5.834 120.426 4.518 122.092 4.518C123.758 4.518 125.06 5.834 125.06 7.5C125.06 9.166 123.758 10.482 122.092 10.482ZM130.653 11.154C132.683 11.154 134.321 9.572 134.321 7.5C134.321 5.428 132.683 3.846 130.653 3.846C128.609 3.846 126.971 5.428 126.971 7.5C126.971 9.572 128.609 11.154 130.653 11.154ZM130.653 10.482C128.987 10.482 127.685 9.166 127.685 7.5C127.685 5.834 128.987 4.518 130.653 4.518C132.319 4.518 133.607 5.834 133.607 7.5C133.607 9.166 132.319 10.482 130.653 10.482ZM149.202 6.436H144.288V7.136H148.446C148.292 8.97 146.85 10.44 144.47 10.44C141.838 10.44 140.06 8.508 140.06 6.1C140.06 3.692 141.838 1.76 144.414 1.76C145.954 1.76 147.326 2.572 147.97 3.804L148.628 3.412C147.816 1.998 146.234 1.046 144.414 1.046C141.432 1.046 139.318 3.3 139.318 6.1C139.318 8.9 141.432 11.154 144.47 11.154C147.396 11.154 149.202 9.18 149.202 6.814V6.436ZM151.622 5.372V4H150.922V11H151.622V7.108C151.622 5.316 152.756 4.574 153.96 4.574V3.902C153.008 3.902 152.098 4.266 151.622 5.372ZM155.729 2.306C156.037 2.306 156.289 2.054 156.289 1.746C156.289 1.452 156.037 1.2 155.729 1.2C155.421 1.2 155.169 1.452 155.169 1.746C155.169 2.054 155.421 2.306 155.729 2.306ZM155.379 11H156.079V4H155.379V11ZM158.236 11H158.936V0.78H158.236V11ZM161.094 11H161.794V0.78H161.094V11Z" fill="white"/>
</svg>
