<svg width="62" height="69" viewBox="0 0 62 69" fill="none" xmlns="http://www.w3.org/2000/svg">
<path d="M5.80027 38.2852C5.15959 38.2852 4.64014 38.8046 4.64014 39.4453V44.0858C4.64014 44.7265 5.15959 45.246 5.80027 45.246C6.44096 45.246 6.96041 44.7265 6.96041 44.0858V39.4453C6.96041 38.8046 6.44096 38.2852 5.80027 38.2852Z" fill="white"/>
<path d="M5.80027 38.2852C5.15959 38.2852 4.64014 38.8046 4.64014 39.4453V44.0858C4.64014 44.7265 5.15959 45.246 5.80027 45.246C6.44096 45.246 6.96041 44.7265 6.96041 44.0858V39.4453C6.96041 38.8046 6.44096 38.2852 5.80027 38.2852Z" fill="url(#paint0_linear)"/>
<path d="M10.4409 40.6055C9.80021 40.6055 9.28076 41.1249 9.28076 41.7656V46.4061C9.28076 47.0468 9.80021 47.5663 10.4409 47.5663C11.0816 47.5663 11.601 47.0468 11.601 46.4061V41.7656C11.601 41.1249 11.0816 40.6055 10.4409 40.6055Z" fill="white"/>
<path d="M10.4409 40.6055C9.80021 40.6055 9.28076 41.1249 9.28076 41.7656V46.4061C9.28076 47.0468 9.80021 47.5663 10.4409 47.5663C11.0816 47.5663 11.601 47.0468 11.601 46.4061V41.7656C11.601 41.1249 11.0816 40.6055 10.4409 40.6055Z" fill="url(#paint1_linear)"/>
<path d="M52.7559 46.832C52.2151 46.4883 51.4982 46.6483 51.1545 47.189C50.8247 47.708 50.9571 48.3943 51.4566 48.7532C54.6455 50.9003 55.4899 55.226 53.3429 58.4148C51.1958 61.6037 46.8701 62.4483 43.6813 60.3012C40.4924 58.154 39.6478 53.8283 41.795 50.6396C43.0878 48.7194 45.2507 47.5675 47.5655 47.5664C48.2062 47.5664 48.7256 47.0469 48.7256 46.4062C48.7256 45.7655 48.2062 45.2461 47.5655 45.2461C42.4397 45.2471 38.2851 49.4031 38.2861 54.5289C38.2871 59.6547 42.4432 63.8093 47.5689 63.8082C52.6947 63.8072 56.8493 59.6512 56.8483 54.5254C56.8477 51.4402 55.314 48.5568 52.7559 46.832Z" fill="white"/>
<path d="M52.7559 46.832C52.2151 46.4883 51.4982 46.6483 51.1545 47.189C50.8247 47.708 50.9571 48.3943 51.4566 48.7532C54.6455 50.9003 55.4899 55.226 53.3429 58.4148C51.1958 61.6037 46.8701 62.4483 43.6813 60.3012C40.4924 58.154 39.6478 53.8283 41.795 50.6396C43.0878 48.7194 45.2507 47.5675 47.5655 47.5664C48.2062 47.5664 48.7256 47.0469 48.7256 46.4062C48.7256 45.7655 48.2062 45.2461 47.5655 45.2461C42.4397 45.2471 38.2851 49.4031 38.2861 54.5289C38.2871 59.6547 42.4432 63.8093 47.5689 63.8082C52.6947 63.8072 56.8493 59.6512 56.8483 54.5254C56.8477 51.4402 55.314 48.5568 52.7559 46.832Z" fill="url(#paint2_linear)"/>
<path d="M60.9405 50.6732C59.8165 46.7793 57.0507 43.5689 53.3662 41.8811V16.2421C53.3663 15.8319 53.1497 15.4521 52.7965 15.2433L27.2736 0.161512C26.9093 -0.0538375 26.4567 -0.0538375 26.0926 0.161512L0.569626 15.2433C0.545263 15.2572 0.527861 15.2781 0.504658 15.2943C0.481456 15.3105 0.459413 15.3291 0.43621 15.3477C0.335424 15.427 0.248849 15.5227 0.179821 15.6307C0.179821 15.6389 0.165899 15.6435 0.161259 15.6516V15.6597C0.0958561 15.7776 0.051481 15.906 0.0301636 16.0391C0.0301636 16.0739 0.0197223 16.1064 0.0162419 16.1412C0.0127615 16.176 7.27539e-08 16.2073 7.27539e-08 16.2421V46.4056C-0.000144944 46.8159 0.21651 47.1957 0.569626 47.4045L26.0926 62.4862C26.1232 62.501 26.1545 62.5142 26.1865 62.5257C26.2182 62.5415 26.2508 62.5554 26.284 62.5674C26.5394 62.6742 26.8268 62.6742 27.0822 62.5674C27.1158 62.5554 27.1487 62.5415 27.1808 62.5257C27.2109 62.5117 27.2434 62.5036 27.2736 62.4862L34.2007 58.3921C36.3323 65.7761 44.0461 70.0341 51.4302 67.9025C58.8142 65.771 63.0721 58.0571 60.9405 50.6732ZM26.6831 2.5073L32.7158 6.07239L23.7711 11.358C23.2192 11.6841 23.0361 12.396 23.3622 12.9479C23.6883 13.4999 24.4002 13.683 24.9522 13.3569L34.9978 7.42511L41.0305 10.9902L17.7883 24.7204L11.7556 21.1553L21.4741 15.4126C22.026 15.0865 22.2092 14.3746 21.883 13.8227C21.5569 13.2707 20.845 13.0876 20.2931 13.4137L9.47481 19.8072L3.44096 16.2421L26.6831 2.5073ZM16.6282 26.7309V34.4771L10.6349 30.9352V23.189L16.6282 26.7309ZM34.1023 50.9403C33.7937 52.1106 33.6395 53.3162 33.6439 54.5266C33.6442 55.0121 33.6697 55.4973 33.7205 55.9802L27.8432 59.4548V55.6867C27.8432 55.046 27.3238 54.5266 26.6831 54.5266C26.0424 54.5266 25.5229 55.046 25.5229 55.6867V59.4548L2.32027 45.7443V18.2758L8.31468 21.8177V31.5965C8.31425 32.0072 8.53076 32.3876 8.88431 32.5965L17.1978 37.5097C17.3768 37.615 17.5807 37.6707 17.7883 37.671C18.429 37.671 18.9485 37.1515 18.9485 36.5108V28.101L25.5229 31.9863V51.0462C25.5229 51.6868 26.0424 52.2063 26.6831 52.2063C27.3238 52.2063 27.8432 51.6868 27.8432 51.0462V31.9863L48.8695 19.5613C49.4211 19.2351 49.604 18.5235 49.2779 17.9719C48.9517 17.4202 48.2401 17.2374 47.6885 17.5635L26.6831 29.977L20.0703 26.0685L43.3124 12.3336L51.0459 16.9034V41.069C43.6412 39.1161 36.0552 43.5354 34.1023 50.9403ZM47.5655 66.1279C41.1582 66.1279 35.9642 60.9338 35.9642 54.5266C35.9642 48.1193 41.1582 42.9252 47.5655 42.9252C53.9728 42.9252 59.1668 48.1193 59.1668 54.5266C59.1599 60.9309 53.9699 66.1208 47.5655 66.1279Z" fill="white"/>
<path d="M60.9405 50.6732C59.8165 46.7793 57.0507 43.5689 53.3662 41.8811V16.2421C53.3663 15.8319 53.1497 15.4521 52.7965 15.2433L27.2736 0.161512C26.9093 -0.0538375 26.4567 -0.0538375 26.0926 0.161512L0.569626 15.2433C0.545263 15.2572 0.527861 15.2781 0.504658 15.2943C0.481456 15.3105 0.459413 15.3291 0.43621 15.3477C0.335424 15.427 0.248849 15.5227 0.179821 15.6307C0.179821 15.6389 0.165899 15.6435 0.161259 15.6516V15.6597C0.0958561 15.7776 0.051481 15.906 0.0301636 16.0391C0.0301636 16.0739 0.0197223 16.1064 0.0162419 16.1412C0.0127615 16.176 7.27539e-08 16.2073 7.27539e-08 16.2421V46.4056C-0.000144944 46.8159 0.21651 47.1957 0.569626 47.4045L26.0926 62.4862C26.1232 62.501 26.1545 62.5142 26.1865 62.5257C26.2182 62.5415 26.2508 62.5554 26.284 62.5674C26.5394 62.6742 26.8268 62.6742 27.0822 62.5674C27.1158 62.5554 27.1487 62.5415 27.1808 62.5257C27.2109 62.5117 27.2434 62.5036 27.2736 62.4862L34.2007 58.3921C36.3323 65.7761 44.0461 70.0341 51.4302 67.9025C58.8142 65.771 63.0721 58.0571 60.9405 50.6732ZM26.6831 2.5073L32.7158 6.07239L23.7711 11.358C23.2192 11.6841 23.0361 12.396 23.3622 12.9479C23.6883 13.4999 24.4002 13.683 24.9522 13.3569L34.9978 7.42511L41.0305 10.9902L17.7883 24.7204L11.7556 21.1553L21.4741 15.4126C22.026 15.0865 22.2092 14.3746 21.883 13.8227C21.5569 13.2707 20.845 13.0876 20.2931 13.4137L9.47481 19.8072L3.44096 16.2421L26.6831 2.5073ZM16.6282 26.7309V34.4771L10.6349 30.9352V23.189L16.6282 26.7309ZM34.1023 50.9403C33.7937 52.1106 33.6395 53.3162 33.6439 54.5266C33.6442 55.0121 33.6697 55.4973 33.7205 55.9802L27.8432 59.4548V55.6867C27.8432 55.046 27.3238 54.5266 26.6831 54.5266C26.0424 54.5266 25.5229 55.046 25.5229 55.6867V59.4548L2.32027 45.7443V18.2758L8.31468 21.8177V31.5965C8.31425 32.0072 8.53076 32.3876 8.88431 32.5965L17.1978 37.5097C17.3768 37.615 17.5807 37.6707 17.7883 37.671C18.429 37.671 18.9485 37.1515 18.9485 36.5108V28.101L25.5229 31.9863V51.0462C25.5229 51.6868 26.0424 52.2063 26.6831 52.2063C27.3238 52.2063 27.8432 51.6868 27.8432 51.0462V31.9863L48.8695 19.5613C49.4211 19.2351 49.604 18.5235 49.2779 17.9719C48.9517 17.4202 48.2401 17.2374 47.6885 17.5635L26.6831 29.977L20.0703 26.0685L43.3124 12.3336L51.0459 16.9034V41.069C43.6412 39.1161 36.0552 43.5354 34.1023 50.9403ZM47.5655 66.1279C41.1582 66.1279 35.9642 60.9338 35.9642 54.5266C35.9642 48.1193 41.1582 42.9252 47.5655 42.9252C53.9728 42.9252 59.1668 48.1193 59.1668 54.5266C59.1599 60.9309 53.9699 66.1208 47.5655 66.1279Z" fill="url(#paint3_linear)"/>
<path d="M51.8375 51.3863C51.388 50.952 50.6751 50.952 50.2255 51.3863L45.8251 55.7867L44.9051 54.8667C44.4443 54.4215 43.7099 54.4343 43.2647 54.8951C42.8304 55.3447 42.8304 56.0576 43.2647 56.5071L45.0049 58.2473C45.4579 58.7002 46.1923 58.7002 46.6453 58.2473L51.8659 53.0267C52.3111 52.5659 52.2984 51.8313 51.8375 51.3863Z" fill="white"/>
<path d="M51.8375 51.3863C51.388 50.952 50.6751 50.952 50.2255 51.3863L45.8251 55.7867L44.9051 54.8667C44.4443 54.4215 43.7099 54.4343 43.2647 54.8951C42.8304 55.3447 42.8304 56.0576 43.2647 56.5071L45.0049 58.2473C45.4579 58.7002 46.1923 58.7002 46.6453 58.2473L51.8659 53.0267C52.3111 52.5659 52.2984 51.8313 51.8375 51.3863Z" fill="url(#paint4_linear)"/>
<defs>
<linearGradient id="paint0_linear" x1="3.48" y1="41.7656" x2="7.65649" y2="43.1577" gradientUnits="userSpaceOnUse">
<stop stop-color="#F99026"/>
<stop offset="1" stop-color="#DF2029"/>
</linearGradient>
<linearGradient id="paint1_linear" x1="8.12063" y1="44.0859" x2="12.2971" y2="45.478" gradientUnits="userSpaceOnUse">
<stop stop-color="#F99026"/>
<stop offset="1" stop-color="#DF2029"/>
</linearGradient>
<linearGradient id="paint2_linear" x1="29.0051" y1="54.5272" x2="47.5672" y2="73.0893" gradientUnits="userSpaceOnUse">
<stop stop-color="#F99026"/>
<stop offset="1" stop-color="#DF2029"/>
</linearGradient>
<linearGradient id="paint3_linear" x1="-30.745" y1="34.226" x2="37.3151" y2="95.3641" gradientUnits="userSpaceOnUse">
<stop stop-color="#F99026"/>
<stop offset="1" stop-color="#DF2029"/>
</linearGradient>
<linearGradient id="paint4_linear" x1="38.3126" y1="54.8238" x2="45.6814" y2="63.8827" gradientUnits="userSpaceOnUse">
<stop stop-color="#F99026"/>
<stop offset="1" stop-color="#DF2029"/>
</linearGradient>
</defs>
</svg>
