<svg width="29" height="28" viewBox="0 0 29 28" fill="none" xmlns="http://www.w3.org/2000/svg">
<path d="M2.52408 26.2143C2.57035 26.0753 2.63314 25.9504 2.71976 25.8322C3.67694 24.5268 9.90913 16.1241 15.0609 11.5396C17.3196 9.5296 20.7135 6.84604 23.4116 4.76245C24.2812 4.09091 25.3962 5.11702 24.8086 6.04538C24.7224 6.18165 24.616 6.30171 24.491 6.40361C23.3529 7.33134 17.2895 12.2963 13.4897 15.8525C9.90921 19.2035 5.12494 24.3115 3.064 26.5382C2.82998 26.7911 2.41527 26.5412 2.52408 26.2143Z" fill="#F84419"/>
<path d="M24.5306 26.5762C24.5102 26.5255 24.4886 26.4813 24.4601 26.4347C23.9861 25.6613 19.3934 18.2064 15.9998 14.1943C12.6889 10.28 7.24005 5.5707 4.38594 3.19064C3.61458 2.5474 2.4603 3.07671 2.42579 4.08048C2.40688 4.63047 2.63412 5.15819 3.0468 5.52225C5.23136 7.44941 12.3679 13.7858 16 17.5C19.1342 20.7051 22.5304 24.8102 24.1451 26.805C24.3051 27.0027 24.6253 26.8122 24.5306 26.5762Z" fill="#F84419"/>
</svg>
