<svg width="17" height="33" viewBox="0 0 17 33" fill="none" xmlns="http://www.w3.org/2000/svg">
<path d="M0.52833 17.185H4.11897V31.7458C4.11897 32.0332 4.35545 32.2662 4.64729 32.2662H10.7353C11.0272 32.2662 11.2637 32.0332 11.2637 31.7458V17.2536H15.3914C15.6598 17.2536 15.8856 17.0552 15.9163 16.7926L16.5432 11.432C16.5604 11.2845 16.5129 11.1368 16.4128 11.0262C16.3125 10.9154 16.169 10.8521 16.0184 10.8521H11.2639V7.49179C11.2639 6.47884 11.8176 5.96519 12.9097 5.96519C13.0654 5.96519 16.0184 5.96519 16.0184 5.96519C16.3103 5.96519 16.5468 5.73214 16.5468 5.44476V0.524273C16.5468 0.236792 16.3103 0.00385113 16.0184 0.00385113H11.7342C11.704 0.00239394 11.6369 0 11.538 0C10.7946 0 8.21077 0.143741 6.16973 1.99332C3.90827 4.04295 4.22262 6.49706 4.29775 6.92255V10.852H0.52833C0.23648 10.852 0 11.0849 0 11.3724V16.6644C0 16.9519 0.23648 17.185 0.52833 17.185Z" fill="white"/>
</svg>
