<svg width="50" height="48" viewBox="0 0 50 48" fill="none" xmlns="http://www.w3.org/2000/svg">
<path d="M46.875 13.0324H36.9875C37.6969 12.548 38.3063 12.0668 38.7313 11.6355C41.25 9.10117 41.25 4.97617 38.7313 2.4418C36.2844 -0.020703 32.0156 -0.0238279 29.5656 2.4418C28.2125 3.80117 24.6156 9.33555 25.1125 13.0324H24.8875C25.3813 9.33555 21.7875 3.80117 20.4344 2.4418C17.9844 -0.0238279 13.7156 -0.020703 11.2688 2.4418C8.75 4.97617 8.75 9.10117 11.2656 11.6355C11.6938 12.0668 12.3031 12.548 13.0125 13.0324H3.125C1.40313 13.0324 0 14.4355 0 16.1574V23.9699C0 24.8324 0.7 25.5324 1.5625 25.5324H3.125V44.2824C3.125 46.0043 4.52812 47.4074 6.25 47.4074H43.75C45.4719 47.4074 46.875 46.0043 46.875 44.2824V25.5324H48.4375C49.3 25.5324 50 24.8324 50 23.9699V16.1574C50 14.4355 48.5969 13.0324 46.875 13.0324ZM13.4844 4.64492C14.1188 4.00742 14.9594 3.65742 15.8531 3.65742C16.7437 3.65742 17.5844 4.00742 18.2188 4.64492C20.325 6.76367 22.4188 12.1762 21.6906 12.9293C21.6906 12.9293 21.5594 13.0324 21.1125 13.0324C18.9531 13.0324 14.8313 10.7887 13.4844 9.43242C12.175 8.11367 12.175 5.96367 13.4844 4.64492ZM23.4375 44.2824H6.25V25.5324H23.4375V44.2824ZM23.4375 22.4074H3.125V16.1574H21.1125H23.4375V22.4074ZM31.7812 4.64492C33.05 3.37305 35.25 3.37617 36.5156 4.64492C37.825 5.96367 37.825 8.11367 36.5156 9.43242C35.1688 10.7887 31.0469 13.0324 28.8875 13.0324C28.4406 13.0324 28.3094 12.9324 28.3062 12.9293C27.5812 12.1762 29.675 6.76367 31.7812 4.64492ZM43.75 44.2824H26.5625V25.5324H43.75V44.2824ZM46.875 22.4074H26.5625V16.1574H28.8875H46.875V22.4074Z" fill="#F84419"/>
</svg>
