<svg width="26" height="26" viewBox="0 0 26 26" fill="none" xmlns="http://www.w3.org/2000/svg">
<path fill-rule="evenodd" clip-rule="evenodd" d="M2.91729 0.964844H23.4353C24.8459 0.964844 26 2.08175 26 3.44686V23.303C26 24.6681 24.8459 25.785 23.4353 25.785H2.91729C1.50668 25.785 0.352539 24.6681 0.352539 23.303V3.44686C0.352539 2.08175 1.50668 0.964844 2.91729 0.964844ZM18.5539 13.3747C18.5539 10.6445 16.3201 8.41064 13.5899 8.41064C10.8597 8.41064 8.62585 10.6445 8.62585 13.3747C8.62585 16.1049 10.8597 18.3387 13.5899 18.3387C16.3201 18.3387 18.5539 16.1049 18.5539 13.3747ZM3.48083 24.1301C3.09302 24.1301 2.83447 23.8727 2.83447 23.4866V12.5474H5.54918C5.4199 12.9335 5.4199 13.4482 5.4199 13.8343C5.4199 18.0813 8.91024 21.5562 13.1762 21.5562C17.4422 21.5562 20.9325 18.0813 20.9325 13.8343C20.9325 13.4482 20.9325 12.9335 20.8032 12.5474H23.5179V23.4866C23.5179 23.8727 23.2594 24.1301 22.8716 24.1301H3.48083ZM22.139 7.58328C22.47 7.58328 22.6906 7.36265 22.6906 7.03172V4.82548C22.6906 4.49455 22.47 4.27393 22.139 4.27393H19.9328C19.6018 4.27393 19.3812 4.49455 19.3812 4.82548V7.03172C19.3812 7.36265 19.6018 7.58328 19.9328 7.58328H22.139Z" fill="white"/>
</svg>
