<svg width="29" height="24" viewBox="0 0 29 24" fill="none" xmlns="http://www.w3.org/2000/svg">
<path d="M26.1099 4.7879C24.8087 3.75085 22.9721 2.90178 20.651 2.2644C16.1872 1.03856 11.1534 0.90625 9.19631 0.90625C4.12544 0.90625 0 5.03174 0 10.1026V13.999C0 19.07 4.12544 23.1954 9.19631 23.1954C11.5345 23.1954 13.2906 22.4629 15.1497 21.6874C17.0724 20.8855 19.0604 20.0562 21.8564 20.0562C25.5397 20.0562 28.5362 17.0596 28.5362 13.3764V9.47994C28.5362 7.64966 27.7199 6.07103 26.1099 4.7879ZM25.6406 14.316C25.8516 14.5402 26.2043 14.5508 26.4285 14.3398C26.8065 13.9839 27.139 13.5873 27.4215 13.1603V13.3764C27.4215 16.4451 24.925 18.9415 21.8564 18.9415C18.8372 18.9415 16.7445 19.8145 14.7206 20.6586C12.9674 21.3899 11.3114 22.0807 9.19631 22.0807C4.91475 22.0807 1.40073 18.7337 1.13186 14.5187C2.6969 17.3652 5.72492 19.2989 9.19631 19.2989C11.5345 19.2989 13.2906 18.5664 15.1497 17.7909C17.0724 16.9889 19.0604 16.1597 21.8564 16.1597C22.0641 16.1597 22.2739 16.1499 22.4801 16.1306C22.7866 16.1019 23.0118 15.8302 22.9831 15.5237C22.9544 15.2173 22.6824 14.9922 22.3762 15.0208C22.2044 15.0369 22.0295 15.0451 21.8564 15.0451C18.8372 15.0451 16.7445 15.918 14.7206 16.7621C12.9674 17.4934 11.3114 18.1842 9.19631 18.1842C4.74008 18.1842 1.1147 14.5588 1.1147 10.1027C1.1147 5.64644 4.74008 2.021 9.19631 2.021C11.1082 2.021 16.0228 2.14947 20.3559 3.33935C25.0443 4.62689 27.4215 6.69286 27.4215 9.47994C27.4215 11.0012 26.781 12.4767 25.6643 13.5281C25.4402 13.7391 25.4296 14.0919 25.6406 14.316Z" fill="black"/>
<path d="M25.1822 14.6717C25.0511 14.3932 24.719 14.2737 24.4406 14.4048C24.4366 14.4066 24.4313 14.4092 24.4273 14.4112C24.152 14.5488 24.0405 14.8836 24.1781 15.1589C24.2757 15.3542 24.4726 15.4671 24.6771 15.4671C24.7597 15.4671 24.8435 15.4487 24.9225 15.4098C25.1958 15.2764 25.3121 14.9478 25.1822 14.6717Z" fill="black"/>
<path d="M13.2193 3.29313L13.1906 3.29079C12.8833 3.26682 12.6151 3.49522 12.5907 3.8021C12.5662 4.10892 12.7951 4.37751 13.1019 4.40203L13.1304 4.40426C13.1455 4.40549 13.1605 4.4061 13.1754 4.4061C13.4631 4.4061 13.707 4.18483 13.7304 3.89317C13.755 3.58629 13.5261 3.31771 13.2193 3.29313Z" fill="black"/>
<path d="M25.959 7.97762C25.4062 6.885 24.1761 5.94074 22.3029 5.17115C20.7872 4.54842 19.1296 4.15505 18.0059 3.93462C17.3325 3.80258 16.6267 3.68465 15.9083 3.58421C15.6036 3.54118 15.3218 3.75409 15.2791 4.05902C15.2365 4.36389 15.4491 4.64551 15.7539 4.68815C16.4523 4.7858 17.1378 4.90033 17.7914 5.02852C21.6198 5.77933 24.2343 7.03765 24.9644 8.48074C25.1178 8.78399 25.1924 9.11054 25.1924 9.47906C25.1924 11.3184 23.6959 12.8148 21.8566 12.8148C19.9968 12.8148 18.1908 13.1187 16.3354 13.744C15.5363 14.0134 14.7604 14.3354 14.01 14.6468C13.5137 14.8527 13.0005 15.0658 12.4911 15.2588C11.2055 15.746 10.2202 15.9539 9.19652 15.9539C5.96958 15.9539 3.34424 13.3286 3.34424 10.1017C3.34424 6.8748 5.96958 4.24946 9.19652 4.24946C9.82604 4.24946 10.4652 4.26139 11.096 4.28491C11.203 4.28887 11.3102 4.29316 11.4174 4.2979C11.7247 4.31183 11.9853 4.07317 11.9988 3.76563C12.0124 3.45814 11.7741 3.1978 11.4666 3.18426C11.3568 3.17941 11.247 3.17501 11.1374 3.17094C10.4929 3.14692 9.83981 3.13477 9.19646 3.13477C5.35488 3.13477 2.22949 6.2601 2.22949 10.1017C2.22949 13.9433 5.35482 17.0686 9.19646 17.0686C10.3633 17.0686 11.4667 16.8391 12.8861 16.3011C13.4117 16.1019 13.933 15.8856 14.4373 15.6763C15.1703 15.3721 15.9284 15.0575 16.6914 14.8003C18.4302 14.2143 20.1198 13.9294 21.8566 13.9294C24.3106 13.9295 26.3071 11.9331 26.3071 9.47912C26.3071 8.93169 26.1932 8.44056 25.959 7.97762Z" fill="black"/>
<path d="M9.73011 5.35156C8.17199 5.35156 6.9043 6.50109 6.9043 7.91408C6.9043 9.32707 8.17199 10.4766 9.73011 10.4766C11.2883 10.4766 12.5559 9.32707 12.5559 7.91408C12.5559 6.50109 11.2883 5.35156 9.73011 5.35156ZM9.73011 9.36185C8.78657 9.36185 8.01899 8.71237 8.01899 7.91403C8.01899 7.11574 8.78657 6.4662 9.73011 6.4662C10.6736 6.4662 11.4412 7.11568 11.4412 7.91403C11.4412 8.71237 10.6736 9.36185 9.73011 9.36185Z" fill="black"/>
</svg>
