<svg width="153" height="48" viewBox="0 0 153 48" fill="none" xmlns="http://www.w3.org/2000/svg">
<path d="M36.8379 47.0002H65.8779V43.6342H41.8539L56.1759 28.9162C60.8619 24.1642 64.8219 19.0822 64.8219 13.3402C64.8219 4.76022 58.1559 0.0742188 51.0939 0.0742188C45.0879 0.0742188 39.8739 2.97822 37.1019 8.65422L40.0719 10.4362C42.2499 5.81622 46.0779 3.44022 51.0939 3.44022C56.7039 3.44022 61.2579 7.00422 61.2579 13.3402C61.2579 17.8942 57.8259 22.2502 53.7999 26.4082L36.8379 43.8322V47.0002Z" fill="#F84419"/>
<path d="M89.7101 47.7262C100.798 47.7262 107.002 38.1562 107.002 23.9002C107.002 9.64422 100.798 0.0742188 89.7101 0.0742188C78.6221 0.0742188 72.4181 9.64422 72.4181 23.9002C72.4181 38.1562 78.6221 47.7262 89.7101 47.7262ZM89.7101 44.3602C81.1301 44.3602 75.9821 36.8362 75.9821 23.9002C75.9821 10.9642 81.1301 3.44022 89.7101 3.44022C98.2901 3.44022 103.438 10.9642 103.438 23.9002C103.438 36.8362 98.2901 44.3602 89.7101 44.3602Z" fill="#F84419"/>
<path d="M124.219 19.7422C130.159 19.7422 134.317 15.3862 134.317 9.90822C134.317 4.43022 130.027 0.0742188 124.219 0.0742188C118.411 0.0742188 114.121 4.43022 114.121 9.90822C114.121 15.3862 118.411 19.7422 124.219 19.7422ZM124.219 16.7062C120.259 16.7062 117.421 13.7362 117.421 9.90822C117.421 6.08022 120.259 3.11022 124.219 3.11022C128.245 3.11022 131.083 6.08022 131.083 9.90822C131.083 13.7362 128.245 16.7062 124.219 16.7062ZM116.629 41.0602L118.807 42.3142L150.223 7.07022L147.979 5.81622L116.629 41.0602ZM142.897 47.7262C148.705 47.7262 152.995 43.3702 152.995 37.8922C152.995 32.4142 148.705 28.0582 142.897 28.0582C137.089 28.0582 132.799 32.4142 132.799 37.8922C132.799 43.3702 137.089 47.7262 142.897 47.7262ZM142.897 44.6902C138.937 44.6902 136.099 41.7202 136.099 37.8922C136.099 34.0642 138.937 31.0942 142.897 31.0942C146.923 31.0942 149.761 34.0642 149.761 37.8922C149.761 41.7202 146.923 44.6902 142.897 44.6902Z" fill="#F84419"/>
<path d="M7.90093 35.4997H10.8679V46.9997H7.90093V42.6297H3.32393V46.9997H0.356934V35.4997H3.32393V39.8467H7.90093V35.4997Z" fill="#F84419"/>
<path d="M22.5913 35.4997H25.5583V46.9997H22.5913V45.6427C21.702 46.7621 20.4523 47.3217 18.8423 47.3217C17.309 47.3217 15.9903 46.7391 14.8863 45.5737C13.7976 44.3931 13.2533 42.9517 13.2533 41.2497C13.2533 39.5477 13.7976 38.1141 14.8863 36.9487C15.9903 35.7681 17.309 35.1777 18.8423 35.1777C20.4523 35.1777 21.702 35.7374 22.5913 36.8567V35.4997ZM17.1173 43.5957C17.7153 44.1937 18.4743 44.4927 19.3943 44.4927C20.3143 44.4927 21.0733 44.1937 21.6713 43.5957C22.2846 42.9824 22.5913 42.2004 22.5913 41.2497C22.5913 40.2991 22.2846 39.5247 21.6713 38.9267C21.0733 38.3134 20.3143 38.0067 19.3943 38.0067C18.4743 38.0067 17.7153 38.3134 17.1173 38.9267C16.5193 39.5247 16.2203 40.2991 16.2203 41.2497C16.2203 42.2004 16.5193 42.9824 17.1173 43.5957Z" fill="#F84419"/>
</svg>
