<svg width="30" height="30" viewBox="0 0 30 30" fill="none" xmlns="http://www.w3.org/2000/svg">
<g clip-path="url(#clip0)">
<path d="M11.6161 9.85223C11.6836 9.8519 11.7481 9.8401 11.8073 9.81723C12.0025 9.74184 12.1419 9.55192 12.1431 9.32939C12.1442 9.03988 11.9098 8.80426 11.6209 8.80268C10.7817 8.79962 10.1012 8.11375 10.1049 7.27429C10.1083 6.43523 10.7937 5.75492 11.6334 5.75855C11.9237 5.75784 12.1592 5.52575 12.1604 5.23571C12.1613 4.94576 11.9271 4.71059 11.6382 4.70901C10.2183 4.70463 9.06231 5.85295 9.05581 7.27064C9.04962 8.68846 10.1986 9.8467 11.6161 9.85223Z" fill="black"/>
<path d="M26.4788 5.88732C26.2732 6.09173 26.2719 6.4239 26.4757 6.62924C26.7625 6.9177 26.9189 7.30114 26.9172 7.70709C26.9157 8.1137 26.7561 8.49541 26.4671 8.78165C26.1785 9.06803 25.796 9.22483 25.3889 9.22327C24.9822 9.22177 24.6004 9.06176 24.3142 8.77304C24.1106 8.56762 23.7799 8.56606 23.5723 8.76997C23.3666 8.97416 23.3654 9.3058 23.5691 9.51167C24.0528 9.9991 24.6975 10.2693 25.3839 10.2724C25.71 10.2735 26.027 10.2146 26.322 10.1007C26.649 9.97438 26.9491 9.78035 27.2057 9.52599C27.6933 9.04259 27.9635 8.39787 27.9663 7.71075C27.9691 7.02362 27.7035 6.37712 27.2201 5.8896C27.0167 5.68462 26.6862 5.68372 26.4788 5.88732V5.88732Z" fill="black"/>
<path d="M19.1167 7.16815C18.9331 7.39177 18.9651 7.72246 19.1892 7.90661C19.5029 8.16426 19.6983 8.52987 19.7379 8.93396C19.7773 9.33888 19.6566 9.73455 19.3985 10.049C19.1404 10.3636 18.7746 10.5578 18.3711 10.5977C17.9662 10.6371 17.5706 10.5165 17.2561 10.2583C17.0326 10.0742 16.701 10.1072 16.5182 10.3308C16.3347 10.5547 16.3667 10.8854 16.5907 11.0693C17.3321 11.6787 18.3158 11.8026 19.1532 11.4793C19.5523 11.3251 19.9191 11.0688 20.2094 10.7155C20.6456 10.1848 20.849 9.51654 20.7822 8.83259C20.7157 8.14857 20.3861 7.5326 19.8554 7.09635C19.6312 6.91199 19.3002 6.94431 19.1167 7.16815Z" fill="black"/>
<path d="M15.2837 9.66456C15.6826 9.69702 16.067 9.63704 16.4175 9.50169C17.3086 9.15756 17.9738 8.32755 18.0577 7.31271C18.0812 7.02438 17.8664 6.77088 17.5776 6.74681C17.2875 6.72347 17.0355 6.93877 17.0117 7.22696C16.9429 8.0638 16.2057 8.68699 15.3697 8.61918C14.5335 8.55018 13.9086 7.8131 13.9777 6.97713C14.0011 6.68858 13.7864 6.4353 13.4976 6.41124C13.2079 6.38751 12.9559 6.60302 12.9316 6.89117C12.8159 8.30362 13.8703 9.54778 15.2837 9.66456V9.66456Z" fill="black"/>
<path d="M12.719 13.8534C13.0787 13.8692 13.4307 13.8109 13.7573 13.6848C14.0527 13.5707 14.3279 13.4009 14.5684 13.1803C15.0751 12.716 15.3704 12.0827 15.3996 11.3967C15.4125 11.1072 15.1876 10.8621 14.8982 10.8496C14.6069 10.8379 14.364 11.0627 14.3516 11.3508C14.3338 11.7572 14.159 12.1321 13.8591 12.407C13.56 12.6818 13.1718 12.8239 12.7643 12.8056C11.9257 12.769 11.2735 12.0571 11.3096 11.2188C11.3226 10.9292 11.0977 10.6844 10.8083 10.6716C10.5164 10.6606 10.2741 10.8847 10.2617 11.1731C10.2006 12.5884 11.3033 13.7912 12.719 13.8534Z" fill="black"/>
<path d="M16.9028 6.31958C16.9834 6.29675 17.0624 6.27028 17.1405 6.24012C17.6958 6.02566 18.1555 5.62864 18.451 5.10369C19.1458 3.86806 18.7059 2.29689 17.4706 1.60223C17.2178 1.46066 16.8987 1.54862 16.7559 1.80212C16.614 2.05475 16.7037 2.37448 16.956 2.51674C17.6877 2.92802 17.9481 3.85827 17.536 4.58979C17.3371 4.94387 17.0169 5.19956 16.6195 5.30942C16.2283 5.41891 15.8173 5.36946 15.4631 5.17005C15.2106 5.02861 14.8912 5.11644 14.7484 5.36993C14.6066 5.62279 14.6962 5.94229 14.9485 6.08455C15.5468 6.42132 16.2411 6.50478 16.9028 6.31958V6.31958Z" fill="black"/>
<path d="M8.57837 14.6151C8.58341 14.3253 8.35237 14.0866 8.06237 14.0817C7.7739 14.0774 7.53376 14.3073 7.52897 14.5977C7.51496 15.4366 6.82216 16.1076 5.98113 16.0939C5.14228 16.0794 4.47111 15.3856 4.48487 14.5461C4.48948 14.2565 4.25896 14.0179 3.96888 14.0127C3.67893 14.0085 3.44 14.2389 3.43548 14.5287C3.41187 15.9464 4.54572 17.1191 5.96289 17.1431C6.30374 17.1486 6.62972 17.0875 6.92975 16.9716C7.87804 16.6052 8.55988 15.6924 8.57837 14.6151Z" fill="black"/>
<path d="M28.5154 5.30651C28.4567 4.29231 27.8327 3.384 26.8753 2.96988C26.1918 2.67484 25.4217 2.664 24.7357 2.93898C24.5029 2.67806 24.2152 2.47085 23.8873 2.3293C23.0212 1.95505 22.0545 2.12498 21.3539 2.67276C21.3388 2.62896 21.332 2.58395 21.3153 2.54075C20.5785 0.632827 18.4024 -0.310443 16.465 0.437706C16.0977 0.579578 15.7595 0.774193 15.4547 1.01942C14.6798 0.658093 13.7756 0.623167 12.9652 0.936131C12.0633 1.28441 11.3785 2.01665 11.0873 2.91095C10.5407 2.86166 9.99114 2.9383 9.47243 3.13861C7.6393 3.84653 6.71498 5.89162 7.41231 7.69733L7.41968 7.71641C6.99979 8.15631 6.71458 8.68911 6.56372 9.25522C5.50942 9.26819 4.53187 9.86951 4.06821 10.8369C3.04357 10.9032 2.11532 11.5258 1.68537 12.4742C1.378 13.1519 1.36237 13.9135 1.62568 14.5901C1.35988 14.8221 1.14719 15.1073 1.0001 15.4313C0.727089 16.0322 0.70678 16.7002 0.943261 17.3125C1.17966 17.9247 1.64362 18.4056 2.25001 18.6679C2.5996 18.8187 2.97158 18.8865 3.34638 18.8683C3.62322 19.5734 4.1729 20.149 4.88259 20.4557C5.5881 20.7606 6.37256 20.774 7.07995 20.5101C7.29969 20.9669 7.67985 21.3398 8.15897 21.5467C8.70486 21.7822 9.29987 21.7762 9.82033 21.5752C10.0171 21.4993 10.1972 21.3876 10.3656 21.2583C12.3995 20.5377 16.8475 23.9057 19.2024 28.9318C19.4929 29.5517 20.2225 29.8433 20.8625 29.5962L23.3093 28.6513C23.9337 28.4102 24.2778 27.7387 24.108 27.0895L24.0127 26.7316C22.2846 20.2618 22.4497 16.534 24.4965 15.6339C24.991 15.6967 25.4878 15.6453 25.942 15.4698C26.6417 15.1997 27.2405 14.6677 27.5714 13.9386C27.6855 13.6871 27.7618 13.4247 27.8004 13.1545C28.4031 12.9178 28.9003 12.4548 29.1688 11.8632C29.4657 11.2092 29.457 10.4721 29.1641 9.83889C29.4563 9.58085 29.6907 9.26426 29.8536 8.90547C30.1593 8.2314 30.1819 7.48247 29.917 6.79664C29.6601 6.13269 29.1648 5.60591 28.5154 5.30651V5.30651ZM8.39144 8.24091C8.58293 8.08152 8.63539 7.80947 8.51786 7.58997C8.47127 7.50261 8.42772 7.41332 8.39104 7.31836C7.90216 6.0524 8.55643 4.61593 9.85046 4.1162C10.3354 3.92893 10.8578 3.89427 11.3628 4.01532C11.5062 4.04992 11.6583 4.02144 11.78 3.93915C11.902 3.85647 11.9837 3.7259 12.0043 3.57957C12.1123 2.82939 12.6258 2.19077 13.3432 1.91372C13.9716 1.67106 14.683 1.73987 15.2465 2.09814C15.4531 2.22981 15.7229 2.20021 15.8967 2.02877C16.1693 1.75915 16.4879 1.55295 16.8432 1.41573C18.2408 0.876029 19.8084 1.54999 20.3367 2.91815C20.4662 3.2535 20.5194 3.60798 20.5028 3.97153C20.5029 3.97302 20.5023 3.97402 20.5021 3.97559L20.4994 4.07895C20.4989 4.0809 20.4993 4.08305 20.4994 4.08475L20.4996 4.08519L20.4993 4.08759C20.4977 4.10962 20.5052 4.12914 20.5062 4.15068C20.5085 4.19716 20.508 4.24401 20.5213 4.287C20.5249 4.29748 20.5324 4.30538 20.5364 4.31569C20.5561 4.36657 20.5787 4.4168 20.6131 4.45873C20.6239 4.47244 20.6405 4.48015 20.6525 4.49291C20.6859 4.52662 20.7189 4.56103 20.7604 4.58559C20.8175 4.61871 20.8814 4.64118 20.9507 4.65043C21.2744 4.69483 21.5344 4.89508 21.6471 5.18678C21.7603 5.48002 21.6959 5.81567 21.4808 6.06406C21.3843 6.17517 21.339 6.32146 21.3555 6.46731C21.3725 6.61322 21.4493 6.74539 21.5677 6.83199C21.8229 7.01773 22.0173 7.27003 22.1296 7.56063C22.3705 8.18462 22.2076 8.89249 21.7139 9.36442C21.5091 9.56046 21.4974 9.88381 21.6875 10.0949C21.8241 10.2463 21.929 10.416 21.9994 10.5985C22.3302 11.455 21.8863 12.4271 21.0094 12.7658C20.9195 12.8005 20.8266 12.825 20.7313 12.8439C20.7115 12.848 20.6918 12.8506 20.6723 12.8543C20.5782 12.8698 20.4821 12.8799 20.3841 12.8794L20.3835 12.8797C20.008 12.8785 19.6378 12.7573 19.3376 12.5217C19.1944 12.4099 19.004 12.3801 18.8335 12.4419C18.6515 12.5122 18.5368 12.6505 18.5007 12.828C18.3942 13.3404 18.1424 13.7968 17.7896 14.1609C17.7377 14.2147 17.6849 14.2671 17.6295 14.3162C17.6022 14.3401 17.5727 14.3624 17.5442 14.3852C17.4906 14.4284 17.4373 14.4719 17.3805 14.5114C17.342 14.5382 17.3005 14.5607 17.2603 14.5858C17.2095 14.6173 17.1598 14.6506 17.107 14.6783C17.0159 14.7263 16.9212 14.7697 16.8238 14.8084C16.7509 14.837 16.6756 14.86 16.6003 14.8823C16.5761 14.8894 16.5522 14.8986 16.5278 14.9053C16.4445 14.9273 16.3592 14.9439 16.2737 14.9583C16.2575 14.9612 16.2405 14.9655 16.2241 14.9681C16.1303 14.9816 16.0358 14.9902 15.9406 14.9942C15.9322 14.9946 15.9242 14.9955 15.916 14.9958C15.8125 14.9993 15.7086 14.9978 15.604 14.9893C15.1557 14.955 14.7171 14.8139 14.3329 14.5648C14.2142 14.4879 14.0697 14.4615 13.9319 14.4931C13.9064 14.4989 13.8822 14.506 13.8583 14.5152C13.7515 14.5564 13.6602 14.6315 13.6 14.7309C13.5111 14.8758 13.4021 15.0029 13.2846 15.1208C13.2817 15.1237 13.278 15.1246 13.2753 15.1272C13.1687 15.2331 13.0556 15.3247 12.9371 15.4035C12.9331 15.4063 12.9293 15.4093 12.9251 15.4122C12.8056 15.4911 12.68 15.5562 12.5493 15.6067C11.4639 16.0259 10.2483 15.5032 9.83849 14.4419C9.68163 14.0357 9.66109 13.5955 9.77886 13.1682C9.81736 13.0304 9.79764 12.8827 9.72415 12.7596C9.6514 12.6365 9.53097 12.5492 9.39155 12.5171C8.59029 12.3323 7.93878 11.7723 7.64809 11.0196C7.60506 10.9082 7.57302 10.7945 7.54727 10.6802C7.54047 10.6508 7.53624 10.621 7.53048 10.5917C7.51451 10.5033 7.5026 10.4144 7.4962 10.3254C7.49444 10.2941 7.49127 10.2631 7.49038 10.2314C7.48745 10.1337 7.49041 10.0363 7.49895 9.939C7.50044 9.92002 7.49993 9.90107 7.50243 9.88145C7.57214 9.25922 7.87994 8.66678 8.39144 8.24091ZM18.8473 14.5355C19.0368 14.2834 19.1986 14.0107 19.3202 13.7158C19.6026 13.8338 19.9041 13.894 20.2094 13.9137C20.2303 13.9261 20.2507 13.9378 20.2772 13.9496C20.3885 13.9976 20.5033 14.0359 20.6206 14.0642C20.2876 15.0031 20.0661 16.0403 19.9288 17.0155C19.5952 16.0629 19.2084 15.2275 18.8473 14.5355V14.5355ZM17.6601 20.9113C16.1227 19.3536 14.5654 18.3949 13.4165 17.8269C13.545 17.6969 13.6539 17.5462 13.7317 17.375C13.8996 17.0045 13.9119 16.5892 13.7785 16.2163C13.8667 16.1124 13.9477 15.9888 14.028 15.8633C14.0857 15.8057 14.1449 15.7496 14.1979 15.6876C14.5385 15.8484 14.9008 15.9552 15.2701 16.0089C16.2492 17.382 17.0846 19.3403 17.6601 20.9113ZM8.57463 20.5842C8.20997 20.4263 7.9666 20.0976 7.92377 19.7041C7.9035 19.5224 7.79052 19.3637 7.62493 19.286C7.49389 19.2247 7.34522 19.2208 7.21296 19.2719C7.17831 19.2853 7.14409 19.3031 7.11201 19.3238C6.56477 19.6858 5.8883 19.7484 5.29789 19.4935C4.74819 19.2559 4.34974 18.7659 4.23303 18.1824C4.20499 18.0412 4.12022 17.919 3.9988 17.8421C3.87754 17.7657 3.73011 17.7422 3.59055 17.777C3.27636 17.8562 2.95648 17.8313 2.66537 17.7053C2.32005 17.5551 2.05589 17.2816 1.9219 16.9346C1.7879 16.5876 1.79966 16.2075 1.95575 15.8645C2.0798 15.5905 2.28655 15.3642 2.55358 15.2112C2.67695 15.1404 2.7659 15.0228 2.80112 14.885C2.83569 14.7474 2.8136 14.6014 2.73829 14.4808C2.44562 14.0068 2.40899 13.4186 2.64081 12.9074C2.94411 12.2381 3.6447 11.8274 4.38421 11.8856C4.62491 11.9045 4.85119 11.7537 4.92536 11.5209C4.94602 11.4549 4.96907 11.3893 4.9989 11.3236C5.26216 10.7418 5.8193 10.3623 6.44162 10.307C6.4423 10.3231 6.44683 10.3387 6.44773 10.3548C6.45522 10.4845 6.47423 10.614 6.49657 10.743C6.50448 10.7896 6.50781 10.8367 6.51778 10.8827C6.55552 11.0562 6.60459 11.2283 6.66981 11.3971C7.02546 12.3181 7.75598 13.0363 8.67228 13.3904C8.62007 13.8746 8.68337 14.3602 8.86039 14.8186C8.89859 14.9176 8.94168 15.0128 8.98852 15.1054C9.00507 15.1378 9.02457 15.1681 9.04266 15.1999C9.07458 15.2584 9.10644 15.3174 9.14263 15.3733C9.16543 15.4088 9.19145 15.4416 9.21545 15.4757C9.24936 15.5243 9.28282 15.5744 9.31973 15.6204C9.34795 15.6556 9.37826 15.6878 9.40759 15.7213C9.44403 15.7635 9.47984 15.8066 9.51809 15.8463C9.5507 15.8798 9.58545 15.9097 9.61917 15.9416C9.65811 15.9784 9.69626 16.0159 9.73702 16.0503C9.77298 16.0808 9.81086 16.1077 9.84802 16.1367C9.88973 16.169 9.93033 16.2017 9.97298 16.2319C10.0121 16.2588 10.0525 16.2831 10.0924 16.3082C10.1363 16.3356 10.1792 16.3639 10.2247 16.3897C10.2665 16.4137 10.3099 16.434 10.353 16.4556C10.3984 16.4784 10.4435 16.5021 10.4903 16.5228C10.5344 16.5423 10.5802 16.5589 10.6254 16.577C10.6724 16.5954 10.72 16.6148 10.7677 16.6307C10.8134 16.646 10.8605 16.6589 10.9075 16.6722C10.9559 16.686 11.0044 16.7006 11.0538 16.7125C11.1015 16.7238 11.1499 16.7321 11.1981 16.7409C11.2479 16.7504 11.2977 16.7599 11.3483 16.7669C11.3969 16.7733 11.4457 16.7776 11.4948 16.7821C11.5459 16.7866 11.5972 16.7915 11.6487 16.7937C11.6978 16.7955 11.7473 16.795 11.7964 16.7944C11.8485 16.7942 11.9009 16.7941 11.9531 16.7909C12.0025 16.7882 12.0523 16.7828 12.102 16.7777C12.1545 16.7721 12.2064 16.7667 12.2583 16.7589C12.3084 16.7515 12.3579 16.7414 12.4078 16.731C12.4602 16.7203 12.5121 16.7093 12.5644 16.6965C12.6143 16.684 12.6636 16.6687 12.7127 16.6538C12.7449 16.6436 12.777 16.6368 12.8089 16.6262C12.8331 16.7298 12.8226 16.8392 12.7773 16.9404C12.6975 17.1156 12.5245 17.2336 12.3255 17.2499C12.1806 17.2618 12.0478 17.333 11.958 17.4458C11.8678 17.5587 11.8285 17.7042 11.849 17.8475C11.8638 17.9504 11.8637 18.0533 11.8494 18.1546C11.8349 18.258 11.8062 18.3586 11.7622 18.4542C11.5752 18.8672 11.1592 19.1306 10.6997 19.1266C10.4212 19.1233 10.1888 19.34 10.1714 19.618C10.1633 19.7522 10.1306 19.8822 10.0761 20.0028C10.0114 20.1447 9.91508 20.2732 9.78932 20.3835C9.78752 20.3847 9.7874 20.387 9.7856 20.3882C9.46037 20.6718 8.99077 20.7637 8.57463 20.5842ZM22.9984 27.0031L23.0923 27.3552C23.1266 27.4876 23.0573 27.624 22.9305 27.673L20.4837 28.6179C20.355 28.6676 20.2094 28.6097 20.1521 28.4869C18.0143 23.9242 14.0239 20.3315 11.1903 20.1248C11.2302 20.1159 11.2683 20.1024 11.3074 20.0914C11.3429 20.0814 11.3788 20.0726 11.4132 20.0611C11.4609 20.045 11.5068 20.0255 11.553 20.0066C11.5859 19.9927 11.6196 19.9809 11.6513 19.9656C11.6967 19.9443 11.7397 19.9191 11.7833 19.895C11.8143 19.878 11.8461 19.8624 11.8763 19.8434C11.9185 19.8171 11.9583 19.7876 11.9988 19.7586C12.0278 19.7378 12.0578 19.7189 12.0856 19.6963C12.1251 19.6647 12.1615 19.6297 12.199 19.5956C12.2245 19.5724 12.2514 19.5506 12.2757 19.5261C12.3155 19.4861 12.351 19.4431 12.3879 19.4002C12.4067 19.3778 12.4276 19.3574 12.4457 19.3345C12.4899 19.2786 12.5294 19.219 12.5684 19.1583C12.576 19.1458 12.5858 19.1347 12.5933 19.1222C12.6386 19.0475 12.6802 18.97 12.717 18.889C12.7467 18.8236 12.7727 18.7573 12.7956 18.6892C14.1475 19.3419 16.5897 20.8186 18.5811 23.6455C18.7276 23.8544 19.004 23.9248 19.2342 23.818C19.465 23.7087 19.5835 23.4498 19.5157 23.2037C19.4618 23.0093 18.287 18.8061 16.5197 15.9833C16.5569 15.976 16.593 15.9638 16.63 15.9558C16.7131 15.9379 16.7957 15.9188 16.8781 15.8948C16.9331 15.8786 16.987 15.8596 17.0412 15.8414C17.0889 15.8252 17.1371 15.8129 17.1843 15.7947C17.2115 15.7842 17.2366 15.7705 17.2635 15.7596C17.3181 15.7367 17.3723 15.7125 17.426 15.6872C17.4976 15.6538 17.5684 15.6187 17.6371 15.581C17.6861 15.554 17.734 15.5267 17.782 15.4981C17.8559 15.4532 17.9282 15.4061 17.9985 15.3565C18.0215 15.3404 18.0468 15.327 18.0695 15.31C18.7527 16.6803 19.4905 18.5811 19.6896 20.6805C19.7157 20.961 19.9597 21.1705 20.2409 21.1546C20.5227 21.1398 20.7406 20.9039 20.7361 20.6227C20.7357 20.5865 20.6919 17.2972 21.4879 14.754C21.4958 14.7601 21.5061 14.7634 21.5146 14.7697C21.6009 14.8314 21.6928 14.8859 21.7923 14.9296C21.7951 14.9308 21.7969 14.9329 21.7995 14.9339C21.8892 14.9723 21.9818 15.0013 22.0757 15.0225C22.0786 15.0229 22.0815 15.0246 22.0847 15.0256C22.1321 15.036 22.1796 15.0369 22.2276 15.043C22.2784 15.0494 22.3286 15.0605 22.3796 15.0614C22.4057 15.0619 22.4312 15.0566 22.457 15.0562C22.5299 15.0545 22.6024 15.053 22.6748 15.0414C22.7728 15.0255 22.869 15.0007 22.9626 14.9669C23.0541 15.0467 23.1508 15.1202 23.2512 15.1871C20.4886 17.6089 22.3481 24.569 22.9984 27.0031V27.0031ZM28.8979 8.4723C28.7515 8.79526 28.51 9.06343 28.201 9.24804C28.0725 9.32462 27.983 9.45244 27.9546 9.60025C27.9262 9.74783 27.9628 9.89952 28.0544 10.0184C28.3639 10.4224 28.4247 10.9629 28.2131 11.4298C28.0249 11.8427 27.6408 12.1468 27.1925 12.2455C26.9547 12.2966 26.7805 12.5093 26.7788 12.7556C26.7777 13.0164 26.723 13.2682 26.6148 13.505C26.2449 14.3216 25.3528 14.754 24.5033 14.5853C24.5025 14.5851 24.5019 14.5849 24.5013 14.5846C24.3616 14.5564 24.2373 14.5184 24.1205 14.4678C23.8647 14.3576 23.6428 14.1935 23.4597 13.981C23.4171 13.9321 23.367 13.8958 23.3134 13.8658C23.2983 13.8575 23.2821 13.8532 23.2665 13.8464C23.2268 13.8297 23.1875 13.8166 23.1455 13.8097C23.1251 13.8065 23.1054 13.805 23.0851 13.8045C23.0456 13.8029 23.0074 13.8058 22.9682 13.8131C22.9469 13.8168 22.927 13.82 22.9058 13.8266C22.8953 13.83 22.8833 13.8295 22.873 13.8335C22.8304 13.85 22.7895 13.872 22.7516 13.9003C22.7509 13.9006 22.75 13.9009 22.7491 13.9013C22.7307 13.9149 22.7097 13.923 22.6905 13.934C22.5662 14.0044 22.4249 14.0242 22.2915 13.9903C22.2657 13.9834 22.2395 13.9794 22.2147 13.9688C22.1676 13.9486 22.1257 13.9205 22.0876 13.8878C22.0784 13.8795 22.0708 13.8691 22.0619 13.8602C22.036 13.8336 22.0113 13.8049 21.9915 13.7727C21.9506 13.7058 21.9228 13.6299 21.9167 13.5457C21.9151 13.5227 21.9121 13.4997 21.9072 13.4773C22.0465 13.3865 22.1747 13.2831 22.2927 13.1709C22.3264 13.1388 22.3537 13.1018 22.386 13.0686C22.4697 12.9811 22.5503 12.8915 22.6216 12.7949C22.6581 12.7453 22.6877 12.6928 22.7207 12.6412C22.777 12.5527 22.8305 12.4635 22.8762 12.3697C22.9048 12.311 22.9291 12.2515 22.953 12.1911C22.9911 12.0973 23.0235 12.0026 23.0504 11.905C23.0683 11.8418 23.0839 11.7791 23.0969 11.7149C23.1171 11.6143 23.1295 11.5128 23.1382 11.4099C23.1435 11.3466 23.1508 11.284 23.1516 11.2202C23.1531 11.1077 23.1431 10.9956 23.1304 10.8826C23.1242 10.8275 23.1235 10.7733 23.1135 10.7182C23.0837 10.5508 23.0412 10.384 22.9777 10.2195C22.9168 10.062 22.8412 9.91125 22.7512 9.7681C23.3011 9.0267 23.4451 8.05571 23.1077 7.18213C22.9828 6.85863 22.7968 6.565 22.5604 6.31377C22.7296 5.96161 22.7885 5.56786 22.7274 5.18495C22.7068 5.0573 22.6731 4.93093 22.6254 4.80745C22.5799 4.68967 22.5215 4.5789 22.4548 4.47462C22.4332 4.44087 22.4066 4.41235 22.3827 4.37997C22.333 4.3127 22.2826 4.24599 22.225 4.18557C22.1922 4.15161 22.1557 4.12235 22.1204 4.09088C22.0637 4.04017 22.0069 3.9908 21.9447 3.94727C21.9031 3.91848 21.8593 3.89381 21.8155 3.86787C21.777 3.84519 21.7421 3.81757 21.7016 3.79766C22.0875 3.24161 22.832 3.01435 23.4709 3.29109C23.7454 3.40938 23.9698 3.60855 24.1197 3.86621C24.1905 3.9883 24.3073 4.07655 24.4444 4.11128C24.5808 4.14584 24.7268 4.12322 24.8462 4.05064C25.337 3.75197 25.94 3.70737 26.4591 3.93211C27.1268 4.2209 27.5304 4.89905 27.4643 5.61891C27.441 5.8686 27.5975 6.09952 27.838 6.17021C27.9047 6.19009 27.9712 6.21228 28.0368 6.2404C28.4554 6.42176 28.7756 6.75302 28.9381 7.17369C29.1006 7.59584 29.0859 8.05643 28.8979 8.4723V8.4723Z" fill="black"/>
</g>
<defs>
<clipPath id="clip0">
<rect width="30" height="30" fill="white"/>
</clipPath>
</defs>
</svg>
