<svg width="28" height="20" viewBox="0 0 28 20" fill="none" xmlns="http://www.w3.org/2000/svg">
<path fill-rule="evenodd" clip-rule="evenodd" d="M20.0156 0.273438C23.4905 0.273438 25.3101 0.746702 26.2956 1.90692C27.2857 3.07229 27.3598 4.85728 27.3598 7.44732V12.1284C27.3598 15.0964 26.8871 16.8107 25.7792 17.8607C24.699 18.8846 23.0291 19.3022 20.0157 19.3022H7.40155C1.19339 19.3022 0.0576172 16.8864 0.0576172 12.1284V7.44732C0.0576172 4.99134 0.0576172 3.21682 1.01487 2.01246C1.99669 0.777229 3.84707 0.273438 7.40155 0.273438H20.0156ZM12.0943 13.4145L17.789 10.5307C18.0783 10.3842 18.2595 10.094 18.2592 9.77751C18.2587 9.4613 18.0768 9.17148 17.787 9.02572L12.0923 6.16044C11.8209 6.02384 11.4956 6.03436 11.2341 6.18827C10.9726 6.34217 10.8131 6.61706 10.8131 6.91333V12.6626C10.8131 12.9593 10.9731 13.2345 11.2351 13.3883C11.3742 13.4699 11.5313 13.511 11.6887 13.511C11.8278 13.511 11.967 13.479 12.0943 13.4145Z" fill="white"/>
</svg>
